<?xml version="1.0" standalone="no"?>
<!DOCTYPE svg PUBLIC "-//W3C//DTD SVG 1.1//EN" "http://www.w3.org/Graphics/SVG/1.1/DTD/svg11.dtd">
<svg xmlns="http://www.w3.org/2000/svg">
<metadata>Copyright (C) 2022 by original authors @ fontello.com</metadata>
<defs>
<font id="app-icons" horiz-adv-x="1000" >
<font-face font-family="app-icons" font-weight="400" font-stretch="normal" units-per-em="1000" ascent="850" descent="-150" />
<missing-glyph horiz-adv-x="1000" />
<glyph glyph-name="coins" unicode="&#xe802;" d="M500-150c-277 0-500 223-500 500s223 500 500 500 500-223 500-500-223-500-500-500z m0 955c-250 0-454-205-454-455 0-250 204-455 454-455 250 0 455 205 455 455 0 250-205 455-455 455z m155-682c-5 0-9 0-9 4l-146 69-145-73c-9-5-19-5-23 0-9 4-9 13-9 23l27 150-114 113c-9 5-9 14-9 23 5 9 9 14 19 18l163 23 73 141c0 4 9 9 18 9l0 0c9 0 18-5 18-14l73-136 159-23c9 0 14-9 18-14 5-9 0-18-4-22l-118-109 27-150c0-9 0-19-9-23 0-9-5-9-9-9z m-355 286l91-82c5-4 9-13 9-22l-23-119 114 60c5 4 14 4 18 0l114-60-18 119c0 9 0 13 9 22l91 82-128 18c-9 0-13 5-18 14l-59 109-59-109c0-9-9-14-14-14l-127-18z" horiz-adv-x="1000" />

<glyph glyph-name="share" unicode="&#xe803;" d="M691 183c-53 0-100-23-134-66l-252 143c19 28 28 57 28 90 0 33-9 62-23 86l238 162c28-48 81-81 143-81 90 0 166 76 166 166s-76 167-166 167-167-76-167-167c0-14 5-28 5-42l-253-167c-28 24-66 43-109 43-91 0-167-76-167-167s76-167 167-167c43 0 81 15 109 43l257-147c-4-19-9-38-9-58 0-90 76-166 167-166s166 76 166 166-76 162-166 162z m0 619c66 0 119-52 119-119s-53-119-119-119-120 53-120 119 53 119 120 119z m-524-571c-67 0-119 52-119 119 0 67 52 119 119 119s119-52 119-119c0-67-53-119-119-119z m524-333c-67 0-120 52-120 119s53 119 120 119 119-53 119-119-53-119-119-119z" horiz-adv-x="857" />

<glyph glyph-name="dislike" unicode="&#xe805;" d="M35 383c-23-26-35-57-35-93 0-32 12-60 36-84 24-24 52-36 84-36l173 0c-1-6-3-11-5-15-1-4-4-9-6-14-3-5-5-8-7-11-7-14-13-26-17-35-4-9-8-21-12-37-4-16-6-32-6-48 0-10 0-18 1-24 0-6 1-16 3-28 2-13 4-23 7-32 3-8 8-17 15-28 7-10 15-18 25-25 10-6 23-12 38-16 15-5 32-7 51-7 11 0 20 4 28 12 9 8 16 19 22 31 5 13 10 24 12 33 2 9 5 22 8 38 3 17 6 30 8 38 2 8 6 18 11 30 5 13 12 23 19 30 14 14 35 39 63 75 21 27 42 52 64 76 21 23 37 36 47 37 10 0 19 5 27 12 7 8 11 17 11 28l0 400c0 11-4 20-12 28-8 8-17 12-28 12-14 0-47 10-99 27-32 11-57 20-75 25-18 6-43 12-76 18-32 7-62 10-90 10l-10 0-48 0-22 0c-56-1-97-17-123-49-24-29-35-66-31-113-16-15-27-35-34-59-7-25-7-49 0-73-19-25-28-54-27-85 0-14 4-29 10-48z m745-133l180 0c11 0 20 4 28 12 8 8 12 17 12 28l0 400c0 11-4 20-12 28-8 8-17 12-28 12l-180 0c-11 0-20-4-28-12-8-8-12-17-12-28l0-400c0-11 4-20 12-28 8-8 17-12 28-12z m72 388c8 8 17 12 28 12 11 0 21-4 29-12 7-7 11-17 11-28 0-11-4-20-11-28-8-8-18-12-29-12-11 0-20 4-28 12-8 8-12 17-12 28 0 11 4 21 12 28z" horiz-adv-x="1000" />

<glyph glyph-name="funds" unicode="&#xe807;" d="M733 617c-146 0-266-120-266-267s120-267 266-267 267 120 267 267-120 267-267 267z m0-474c-113 0-206 94-206 207s93 207 206 207 207-94 207-207-93-207-207-207z m587 707h-1173c-80 0-147-67-147-147v-706c0-80 67-147 147-147h1173c80 0 147 67 147 147v706c0 80-67 147-147 147z m87-647c-14 0-20 0-27 0-147 0-267-120-267-266 0-14 0-20 0-27h-760c0 13 0 20 0 27 0 146-120 266-266 266-14 0-20 0-27 0v294c13 0 20 0 27 0 146 0 266 120 266 266 0 14 0 20 0 27h760c0-13 0-20 0-27 0-146 120-266 267-266 13 0 20 0 27 0v-294z m0 500v-140c-14-6-20-6-27-6-113 0-207 93-207 206 0 14 0 20 7 27h140c47 0 87-40 87-87z m-1260 87h140c6-13 6-20 6-27 0-113-93-206-206-206-14 0-20 0-27 6v140c0 47 40 87 87 87z m-87-793v140c13 6 20 6 27 6 113 0 206-93 206-206 0-14 0-20-6-27h-140c-47 0-87 40-87 87z m1260-87h-140c0 13-7 20-7 27 0 113 94 206 207 206 13 0 20 0 27 0v-146c0-47-40-87-87-87z" horiz-adv-x="1467" />

<glyph glyph-name="fork" unicode="&#xe808;" d="M145-150h-4c-34 0-62 29-62 62v496h-5c-41 0-74 33-74 78v314c0 13 8 21 21 21s20-8 20-21v-314c0-20 17-37 33-37h25c13 0 21-8 21-20v-517c0-12 8-21 21-21h4c8 0 20 9 20 21v517c0 12 9 20 21 20h25c16 0 33 17 33 37v314c0 13 8 21 21 21s20-8 20-21v-314c0-41-33-78-74-78h-4v-496c0-33-29-62-62-62z m-21 707v239c0 13-12 21-21 21s-20-8-20-21v-239c0-13 8-21 20-21s21 8 21 21z m79 0v239c0 13-9 21-21 21s-21-8-21-21v-239c0-13 8-21 21-21s21 8 21 21z m384-641l0 860c0 0 0 0 0 0l0 8c0 25 0 50-17 62-8 4-16 8-33 0-4 0-74-29-91-103l-37-401c0-8 4-17 13-21l37-21 0-384c0-33 29-62 62-62h4c33-4 62 25 62 62z m-99 818c8 42 41 62 58 71 0-9 0-17 0-25l0-868c0-12-9-21-21-21h-4c-13 0-21 9-21 21l0 397c0 8-4 16-12 16l-33 25 33 384z" horiz-adv-x="587" />

<glyph glyph-name="gear" unicode="&#xe80a;" d="M500 112c-133 0-238 105-238 238 0 133 105 238 238 238s238-105 238-238c0-133-105-238-238-238z m0 429c-105 0-190-86-190-191 0-105 85-190 190-190 105 0 191 85 191 190 0 105-86 191-191 191z m29-691h-58c-52 0-95 43-95 95v10c0 9-9 19-19 24-5 4-14 4-19 9-9 5-24 5-33-5l-5-9c-38-38-95-38-133 0l-38 38c-19 19-29 43-29 67s10 47 29 66l9 10c5 9 5 24 0 33-5 5-5 14-9 19-5 10-15 19-24 19h-10c-52 0-95 43-95 95v58c0 52 43 95 95 95h10c9 0 19 9 24 19 4 5 4 14 9 19 5 9 5 24-5 33l-4 5c-19 19-29 43-29 67 0 24 10 47 29 66l38 38c38 39 95 39 133 0l10-9c4-5 19-5 28 0 5 5 14 5 19 9 10 5 19 15 19 24v10c0 52 43 95 95 95h53c52 0 95-43 95-95v-10c0-9 10-19 19-24 5-4 14-4 19-9 14-5 29-5 38 5l5 4c38 39 95 39 133 0l38-38c20-19 29-42 29-66 0-24-9-48-29-67l-9-9c-5-5-5-20 0-29 5-5 5-14 9-19 5-14 15-24 24-24h10c52 0 95-43 95-95v-53c0-52-43-95-95-95h-10c-9 0-19-9-24-19-4-5-4-14-9-19-5-9-5-24 5-33l4-5c39-38 39-95 0-133l-38-38c-38-39-95-39-133 0l-9 9c-10 10-20 10-34 5-5-5-14-5-19-10-9-4-19-14-19-24v-14c5-52-38-95-90-95z m-205 191c9 0 24 0 33-5 5-5 10-5 19-10 29-9 53-38 53-71v-10c0-24 19-47 47-47h53c23 0 47 19 47 47v10c0 28 19 57 48 71 5 0 14 5 19 10 28 14 62 9 86-15l9-9c19-19 48-19 67 0l38 38c19 19 19 48 0 67l-5 4c-24 24-28 58-14 86 5 5 5 10 9 19 10 29 38 53 72 53h0c24 0 47 19 47 47v53c0 23-19 47-47 47h-10c-28 0-57 19-71 48-5 5-5 14-10 19-14 28-9 62 15 86l9 9c10 10 14 19 14 33 0 15-4 24-14 34l-38 38c-19 19-48 19-67 0l-4-5c-24-24-58-28-86-14-5 5-10 5-19 9-29 10-53 38-53 72v0c0 24-19 47-47 47h-53c-23 0-47-19-47-47v-10c0-28-19-57-48-71-5 0-14-5-19-10-28-9-62-4-86 19l-4 5c-19 19-48 19-67 0l-38-38c-10-9-14-19-14-33 0-15 4-24 14-34l9-9c20-19 24-53 10-81 0-5-5-14-5-19-14-29-43-48-71-48h-10c-24 0-47-19-47-47v-53c0-24 19-47 47-47h10c28 0 57-19 71-48 0-5 5-14 10-19 14-29 9-62-15-86l-9-9c-19-19-19-48 0-67l38-38c19-19 48-19 67 0l4 5c15 14 34 24 53 24z" horiz-adv-x="1000" />

<glyph glyph-name="information" unicode="&#xe80b;" d="M500 850c-276 0-500-224-500-500 0-276 224-500 500-500 276 0 500 224 500 500 0 276-224 500-500 500z m0-952c-248 0-452 204-452 452s204 452 452 452 452-204 452-452-204-452-452-452z m48 666c0-28-19-47-48-47s-48 19-48 47 19 48 48 48 48-19 48-48z m-24-166v-286c0-14-10-24-24-24s-24 10-24 24v286c0 14 10 23 24 23s24-9 24-23z" horiz-adv-x="1000" />

<glyph glyph-name="gift-card" unicode="&#xe80c;" d="M1174-150h-1032c-79 0-142 63-142 147v706c0 84 63 147 142 147h1032c79 0 142-63 142-147v-711c0-79-63-142-142-142z m-1032 947c-47 0-89-42-89-94v-711c0-53 42-95 89-95h1032c47 0 89 42 89 95v711c0 52-42 94-89 94h-1032z m663-736h-15l-132 68-126-68h-37l-5 5c-11 10-11 26-11 26l26 148-100 100c-15 10-15 26-15 31 0 21 15 37 36 37l137 21 63 121c11 16 27 26 42 21 11-5 22-10 27-26l63-121 142-21c16 0 32-16 32-37 0-5 0-21-11-32l-100-89 21-137c0-16-5-26-10-32-6-10-16-15-27-15z m-347 300l105-100-26-143 121 64 126-64-21 137 105 95-147 26-63 121-58-121-142-15z m432-11c0 0 5 0 5 0l-5 0z m-458 5l0 0c0 0 0 0 0 0z m605-221h-5l-16 6-111 57c-10 6-15 21-10 37 5 11 21 16 37 11l84-42-21 131 100 95-148 11-57 121-43-85c-5-10-21-15-36-10-11 5-16 21-11 37l58 115c10 16 26 27 42 22 11-6 21-11 26-27l58-121 142-16c0 0 0 0 0 0 32-5 32-31 32-36 0-6 0-22-11-32l-100-95 21-137c0-42-31-42-31-42z m84 284c0 0 0 0 0 0l0 0z m-705-226c10 5 16 21 10 37-5 11-21 16-36 11l-90-43 21 137-95 90 142 21 58 121 37-79c11-16 27-21 37-16 16 11 21 26 11 37l-53 105c0 11-11 21-21 27-16 5-37-6-42-22l-63-126-137-21c-37 0-37-26-37-31 0-6 0-22 10-32l95-95-16-147c0-21 16-37 37-37h16l116 63z" horiz-adv-x="1316" />

<glyph glyph-name="like" unicode="&#xe80e;" d="M965 317c23 26 35 57 35 93 0 32-12 61-36 84-24 24-52 36-84 36l-173 0c1 6 3 11 5 15 1 4 4 9 7 14 2 5 5 8 6 11 7 14 13 26 17 35 4 9 8 22 12 37 4 16 6 32 6 48 0 10 0 18-1 24 0 6-1 16-3 28-2 13-4 23-7 32-3 8-8 17-15 28-7 10-15 18-25 25-10 6-22 12-38 16-15 5-32 7-51 7-11 0-20-4-28-12-9-8-16-19-22-31-5-13-9-24-12-33-2-9-5-22-8-38-3-17-6-30-8-38-2-7-6-18-11-30-5-13-12-23-19-30-14-14-35-39-63-75-21-27-42-52-63-76-22-23-38-36-48-36-10-1-19-6-27-13-7-8-11-17-11-27l0-401c0-11 4-20 12-28 8-8 17-12 28-12 14 0 47-10 99-27 32-11 57-20 75-25 18-6 43-12 76-18 32-7 62-10 90-10l10 0 48 0 22 0c56 1 97 17 123 49 25 29 35 66 31 113 16 15 28 35 34 59 7 25 7 49 0 73 19 25 28 54 27 85 0 14-3 30-10 48z m-745 133l-180 0c-11 0-20-4-28-12-8-8-12-17-12-28l0-400c0-11 4-20 12-28 8-8 17-12 28-12l180 0c11 0 20 4 28 12 8 8 12 17 12 28l0 400c0 11-4 20-12 28-8 8-17 12-28 12z m-72-388c-8-8-17-12-28-12-11 0-21 4-28 12-8 7-12 17-12 28 0 11 4 20 12 28 7 8 17 12 28 12 11 0 20-4 28-12 8-8 12-17 12-28 0-11-4-21-12-28z" horiz-adv-x="1000" />

<glyph glyph-name="add-user" unicode="&#xe810;" d="M403 397c-127 0-226 105-226 227s99 226 226 226 227-99 227-226-105-227-227-227z m0 398c-94 0-171-78-171-171s77-172 171-172 172 78 172 172-78 171-172 171z m238-945h-475c-50 0-94 22-122 55-33 39-44 83-38 133l0 0c22 182 176 315 359 315h77c182 0 337-133 365-315 5-50-6-94-39-133-33-33-77-55-127-55z m-276 448c-155 0-288-111-310-266l0 0c-5-33 6-61 28-88s50-39 83-39h480c34 0 61 11 83 39 22 22 28 55 28 88-33 155-166 266-315 266h-77z m541 49c-99 0-177 78-177 177s78 177 177 177 177-77 177-177-83-177-177-177z m0 299c-66 0-121-56-121-122s55-121 121-121 122 55 122 121-56 122-122 122z m276-697c28 28 39 67 34 105-23 144-144 249-288 249h-49c-45 0-89-11-128-33-11-6-16-28-11-39 6-11 28-16 39-11 28 17 66 28 100 28h49c116 0 216-89 232-205 6-22-5-44-16-60-17-17-39-28-61-28h-238c-16 0-27-11-27-28s11-27 27-27h238c33 0 72 16 99 49z" horiz-adv-x="1215" />

<glyph glyph-name="ribbon" unicode="&#xe811;" d="M648 576c4-9 4-22 0-30l-200-205c-4-4-9-4-18-4-4 0-8 0-13 4l-126 87c-8 9-13 22-4 31 9 8 22 13 30 4l109-78 187 191c9 9 26 9 35 0z m252-583c-4-8-9-13-17-13l-139 0-70-117c-4-9-13-9-17-9 0 0 0 0 0 0-9 0-13 5-18 9l-148 248c-13 0-26 0-34 0-13 0-31 0-44 4l-143-252c-9-9-13-13-22-13 0 0 0 0 0 0-9 0-13 4-18 9l-73 121-135 0c-9 0-13 5-18 13-4 9-4 14 0 22l153 252c-44 61-70 135-70 213 0 205 165 370 370 370 204 0 369-165 369-370 0-82-26-160-74-221l148-244c4-8 4-13 0-22z m-535 131c-69 17-135 56-182 109l-122-209 113 0c9 0 13-4 17-9l57-95 117 204z m92 30c178 0 326 148 326 326s-148 327-326 327-327-148-327-327 148-326 327-326z m387-130l-122 200c-48-52-113-87-183-104l118-205 56 96c4 4 9 9 17 9l114 4z" horiz-adv-x="904" />

<glyph glyph-name="sent" unicode="&#xe814;" d="M989 255l0 383c0 0 0 0 0 0l0 0c0 0 0 0 0 1 0 5-2 10-5 15 0 0 0 0 0 0l0 0c0 0 0 0 0 0l-123 173c-6 8-16 13-26 13l-558 0c-10 0-20-5-26-13l-123-173c0 0 0 0 0 0l0 0c0 0 0 0 0 0-3-5-5-10-5-15 0-1 0-1 0-1l0 0c0 0 0 0 0 0l0-378-92 0c-17 0-31-13-31-29l0-345c0-16 14-29 31-29l123 0c28 0 52 12 69 30 33-9 106-30 210-30l279 0c68 0 132 30 172 81l148 184c0 0 0 0 0 0 37 46 16 114-43 133z m-310 527l140 0 82-115-222 0 0 115z m-184 0l123 0 0-115-123 0 0 115z m0-173l123 0 0-149-45 27c-10 7-24 7-34 0l-44-27 0 149z m-201 173l139 0 0-115-222 0 83 115z m-109-839c0-15-14-28-31-28l-92 0 0 288 92 0c17 0 31-13 31-29l0-231z m0 312l0 354 248 0 0-203c0-23 27-37 48-24l75 47 75-47c21-13 48 1 48 24l0 203 249 0 0-354c-14-4-27-12-37-22l-91-91c-11 35-47 61-88 61l-146 0c-20 0-39 6-54 19-81 66-201 66-283 1-11 15-26 26-44 32z m798-98c0 0 0 0 0 0l-148-185c-29-36-75-57-123-57l-279 0c-72 0-129 10-187 25 0 4 0-14 0 221l22 17c58 48 145 48 203 0 26-21 60-33 95-33l146 0c17 0 31-13 31-29 0-16-14-29-31-29l-222 0c-17 0-30-12-30-28 0-16 13-29 30-29l243 0c25 0 50 10 67 27l136 136c6 6 14 10 22 10 26 0 40-28 25-46z m-148 161l-123 0c-17 0-31-13-31-29 0-16 14-29 31-29l123 0c17 0 31 13 31 29 0 16-14 29-31 29z" horiz-adv-x="1053" />

<glyph glyph-name="smile" unicode="&#xe815;" d="M500-150c-275 0-500 225-500 500 0 275 225 500 500 500 275 0 500-225 500-500 0-275-225-500-500-500z m0 950c-250 0-450-200-450-450 0-250 200-450 450-450 250 0 450 200 450 450 0 250-200 450-450 450z m270-560c5 10 0 25-10 35-10 5-25 0-35-10-40-85-130-135-230-135s-185 55-230 135c-5 10-20 15-35 10-10-5-15-20-10-35 50-100 155-165 270-165 125 0 235 65 280 165z m-360 185c15 10 20 25 15 35-20 40-60 65-100 65s-80-25-100-65c-5-10 0-25 15-35 15-5 25 0 35 10 10 20 30 35 50 35s40-15 50-35c5-5 15-10 25-10 5 0 5 0 10 0z m350 0c15 5 20 20 15 35-20 40-55 65-100 65s-80-25-100-65c-5-15 0-25 15-35 10-5 25 0 35 10 10 20 30 35 50 35s40-15 50-35c5-10 15-15 25-15 5 5 5 5 10 5z" horiz-adv-x="1000" />

<glyph glyph-name="mobile" unicode="&#xe816;" d="M480 840q42 0 71-29t29-71l0-780q0-40-29-70t-71-30l-380 0q-40 0-70 30t-30 70l0 780q0 42 30 71t70 29l380 0z m-190-940q30 0 50 15t20 35q0 22-20 36t-50 14q-28 0-49-15t-21-35 21-35 49-15z m210 150l0 660-420 0 0-660 420 0z" horiz-adv-x="580" />

<glyph glyph-name="tune" unicode="&#xe818;" d="M727 236c0 87-72 160-159 160s-159-73-159-160c0-81 59-145 137-154v-209c0-14 9-23 22-23s23 9 23 23v209c77 9 136 73 136 154z m-159-113c-63 0-113 50-113 113s50 114 113 114 114-50 114-114-50-113-114-113z m-386 586v118c0 14-9 23-23 23s-23-9-23-23v-118c-77-9-136-73-136-154 0-87 73-159 159-159s159 72 159 159c0 81-59 145-136 154z m-23-268c-63 0-113 50-113 114s50 113 113 113 114-50 114-113-50-114-114-114z m23-159v-409c0-14-9-23-23-23s-23 9-23 23v409c0 14 10 23 23 23s23-9 23-23z m364 227v318c0 14 9 23 22 23s23-9 23-23v-318c0-13-9-23-23-23s-22 10-22 23z" horiz-adv-x="727" />

<glyph glyph-name="sync" unicode="&#xe819;" d="M298 604l40 114c-176-43-298-197-298-377 0-180 122-337 298-377 13-4 17-13 17-26-4-9-13-18-22-18 0 0-4 0-4 0-197 48-333 220-333 421 4 202 136 373 329 421l-119 44c-13 5-17 18-13 31 4 9 13 17 26 13l189-66-66-193c-4-8-13-13-22-13-4 0-4 0-9 0-8 5-17 18-13 26z m601-250c0 202-136 378-333 421-13 5-22-4-26-17-5-13 4-22 17-26 176-40 298-198 298-378 0-179-122-333-298-377l40 114c4 13 0 22-14 27-13 4-22 0-26-14l-66-188 189-66c4 0 4 0 9 0 8 0 17 4 22 13 4 13 0 22-14 26l-122 44c193 53 324 224 324 421z" horiz-adv-x="899" />

<glyph glyph-name="user" unicode="&#xe81b;" d="M405 400c125 0 225 100 225 225s-105 225-225 225-225-100-225-225 100-225 225-225z m0 400c95 0 175-80 175-175s-80-175-175-175-175 80-175 175 75 175 175 175z m400-765c-25 180-185 315-365 315h-75c-180 0-335-135-365-315-5-45 5-95 40-130 30-35 75-55 120-55h480c45 0 90 20 125 55 35 35 45 85 40 130z m-75-95c-20-25-50-40-85-40h-485c-35 0-65 15-85 40-20 25-30 55-25 90 25 155 160 270 315 270h75c155 0 290-115 315-270 5-35-5-65-25-90z" horiz-adv-x="805" />

<glyph glyph-name="delivery-truck" unicode="&#xe81c;" d="M172 517c0 16 11 27 28 27h278c16 0 28-11 28-27s-12-28-28-28h-278c-17 0-28 11-28 28z m761-195c-122 0-227-83-255-205-6-28-28-45-56-45h-172c0-11 0-16 0-28 0-105-89-194-194-194s-195 89-195 194c0 12 0 23 0 28-44 11-78 61-61 106l6 22c33 100 127 172 238 172h117c45 0 83-39 83-83v-167h173c0 0 0 0 0 0 33 145 161 250 311 250h16v272c0 34-16 62-44 73l-161 77c-11 6-17 23-11 39 5 11 22 17 39 11l161-77c44-23 78-73 78-123v-322h-73z m-850-194h311v166c0 17-11 28-27 28h-117c-83 0-156-55-183-133l-11-22c-6-23 11-39 27-39z m311-84c0 12 0 17-5 28h-267c0-11-5-16-5-28 0-77 61-138 139-138s138 61 138 138z m750 0c0-94-72-166-166-166s-167 72-167 166 72 167 167 167 166-72 166-167z m-55 0c0 62-50 112-111 112s-111-50-111-112 50-111 111-111 111 50 111 111z" horiz-adv-x="1144" />

<glyph glyph-name="location" unicode="&#xe824;" d="M407 262c-99 0-181 81-181 181s82 181 181 181c100 0 181-82 181-181s-81-181-181-181z m0 317c-77 0-135-59-135-136s58-136 135-136 136 59 136 136-59 136-136 136z m0-729l-13 9c-14 9-394 267-394 593 0 222 181 398 407 398 227 0 408-176 408-398 0-326-381-584-394-593l-14-9z m0 955c-199 0-362-159-362-353 0-267 299-503 362-548 64 50 362 281 362 548 0 194-163 353-362 353z" horiz-adv-x="814" />

<glyph glyph-name="ion_mail-open-outline" unicode="&#xe826;" d="M863 515l-342 168c-6 4-14 5-21 5-7 0-15-1-21-5l-341-168c-14-7-25-16-32-29-8-12-12-26-12-41v-361c0-43 35-78 79-78h654c44 0 79 35 79 78v361c0 15-4 29-12 41-7 13-18 22-31 29v0z m-87-384l-252 197c-9 6-19 10-29 10-11 0-21-4-29-10l-252-197m390 143l266 201m-750 0l271-205" horiz-adv-x="1000" />

<glyph glyph-name="bag" unicode="&#xe827;" d="M808-32l-70 611c-4 57-52 96-109 96h-74v22c0 83-70 153-153 153s-149-70-149-153v-22h-74c-57 0-100-43-109-96l-70-611c-4-31 4-61 26-83s53-35 83-35h590c30 0 61 13 83 35s30 52 26 83z m-511 729c0 61 48 109 109 109s109-48 109-109v-22h-218v22z m454-786c-13-13-30-22-48-22h-594c-17 0-35 9-48 22-13 13-17 31-17 52l70 612c4 31 30 57 65 57h74v-153c0-13 9-22 22-22s22 9 22 22v153h218v-153c0-13 9-22 22-22s22 9 22 22v153h74c35 0 61-26 66-57l70-612c0-21-5-39-18-52z" horiz-adv-x="808" />

<glyph glyph-name="home_new" unicode="&#xe82f;" d="M889 536l-387 300c-24 19-62 19-86 0l-387-300c-19-14-29-39-29-58v-507c0-34 15-63 34-87s53-34 87-34h676c34 0 63 14 87 34s34 53 34 87v507c0 19-10 44-29 58z m-309-638h-242v411c0 14 10 24 24 24h194c14 0 24-10 24-24v-411z m290 73c0-20-10-39-20-53s-34-20-53-20h-169v411c0 39-34 72-72 72h-194c-38 0-72-33-72-72v-411h-169c-20 0-39 10-53 20s-20 33-20 53v507c0 10 5 15 10 19l386 300c5 5 10 5 15 5s10 0 14-5l387-300c5-4 10-14 10-19v-507z" horiz-adv-x="918" />

<glyph glyph-name="instagram" unicode="&#xe864;" d="M798-150h-575c-122 0-223 96-223 218v559c0 122 101 223 223 223h575c122 0 223-101 223-223v-559c0-122-95-218-223-218z m-575 947c-95 0-170-75-170-170v-559c0-90 75-170 170-170h575c96 0 170 74 170 170v559c0 95-74 170-170 170h-575z m288-708c-149 0-266 117-266 261s122 261 266 261 266-117 266-261-123-261-266-261z m0 468c-117 0-213-95-213-207 0-117 96-207 213-207 117 0 212 95 212 207 0 112-95 207-212 207z m298 0c-43 0-80 38-80 80 0 43 37 80 80 80 0 0 0 0 0 0 21 0 37-5 53-21 16-16 21-37 21-59 5-48-32-80-74-80z m0 102c0 0 0 0 0 0-16 0-27-11-27-27 0-16 11-27 27-27s26 11 26 27c0 5-5 16-5 21-11 6-16 6-21 6z" horiz-adv-x="1021" />

<glyph glyph-name="sent-2" unicode="&#xe86d;" d="M985 269h-203v201c0 9-6 15-15 15-8 0-14-6-14-15v-201h-74v370c0 8-6 14-15 14h-56v65h84c33 0 61-27 61-61v-137c0-8 6-15 14-15 9 0 15 7 15 15v137c0 50-40 91-90 91h-85c-4 20-23 36-45 36h-65c-20 40-61 66-106 66-45 0-86-26-105-66h-66c-22 0-41-16-45-36h-85c-49 0-90-41-90-91v-157c0-8 7-15 15-15 8 0 15 7 15 15v157c0 34 27 61 60 61h84v-65h-56c-8 0-15-6-15-14v-654c0-8 7-15 15-15h377c8 0 14 7 14 15 0 8-6 15-14 15h-362v624h41v-45c0-8 7-15 15-15h404c8 0 15 7 15 15v45h42v-355h-106c-8 0-15-6-15-15v-374h-439c-33 0-60 27-60 60v511c0 8-7 14-15 14-8 0-15-6-15-14v-511c0-49 41-90 90-90h895c8 0 15 7 15 15v389c0 9-7 15-15 15z m-781 325v144c0 9 7 16 16 16h75c7 0 12 4 14 10 13 34 46 56 82 56 36 0 69-22 82-56 2-6 8-10 14-10h75c9 0 16-7 16-16 0 0 0-5 0-5 0 0 0-94 0-94v-45h-374v0z m623-354v-146l-55 31c-3 1-5 2-8 2-2 0-5-1-7-2l-55-31v146h125z m143-360h-278c0 0 0 0 0 0h-133v360h113v-172c0-5 3-10 8-12 4-3 10-3 15-1l69 40 70-40c3-1 5-2 8-2 2 0 5 1 7 3 5 2 8 7 8 12v172h113v-360z m-579 915c-34 0-62-28-62-62 0-35 28-62 62-62 34 0 62 27 62 62 0 34-28 62-62 62z m0-95c-18 0-32 15-32 33 0 18 14 32 32 32 18 0 33-14 33-32 0-18-15-33-33-33z m-110-219c-7 4-16 1-20-6l-34-64-20 33c-4 7-13 9-20 5-7-5-9-14-5-21l34-55c2-4 7-7 12-7 1 0 1 0 1 0 5 1 10 4 13 8l45 87c4 8 1 17-6 20z m317-56c0 8-7 15-15 15h-250c-8 0-15-7-15-15 0-8 7-15 15-15h250c8 0 15 7 15 15z m-317-113c-7 4-16 1-20-6l-34-64-20 32c-4 7-13 10-20 5-7-4-9-13-5-20l34-55c2-4 7-7 12-7 1 0 1 0 1 0 5 0 10 3 13 8l45 87c4 7 1 16-6 20z m52-42c-8 0-15-6-15-15 0-8 7-14 15-14h159c8 0 15 6 15 14 0 9-7 15-15 15h-159z" horiz-adv-x="1000" />

<glyph glyph-name="legend-collection" unicode="&#xe8b4;" d="M854 704c-95 94-220 146-354 146-134 0-259-52-354-146-94-95-146-220-146-354 0-134 52-259 146-354 95-94 220-146 354-146 134 0 259 52 354 146 94 95 146 220 146 354 0 134-52 259-146 354z m-354-822c-258 0-468 210-468 468 0 258 210 468 468 468 258 0 468-210 468-468 0-258-210-468-468-468z m287 412l-146 155c-4 4-10 6-16 6-7 0-13-2-16-6l-22-24-80 85c-3 5-10 7-16 7-6 0-12-3-16-7l-100-108-17 20c-4 4-10 7-16 7-6 0-12-3-16-7l-114-128c-6-7-4-17 4-23 4-2 8-3 12-3 6 0 12 2 16 7l98 109 8-10-23-25c-7-7-5-17 3-23 4-2 8-3 13-3 6 0 12 2 16 6l132 142 71-75-43-47c-7-7-5-17 4-23 9-5 21-3 28 4l75 81 131-138c4-4 10-6 16-6 4 0 9 0 12 3 8 7 9 17 2 24z" horiz-adv-x="1000" />

<glyph glyph-name="like-2" unicode="&#xe8b5;" d="M725 311c33 15 34 62 0 77 9 8 13 19 13 30 0 24-20 43-42 42-1 0-43 0-47 0-4 0-7-3-7-7 0-4 3-8 7-8h47c17 0 31-15 27-32-2-12-13-22-26-22h-105c-14 0-27 12-27 27 0 15 13 27 27 27 52 0 8 0 58 0 4 0 8 4 8 8 0 4-4 7-8 7-10 0-29 0-38 0 31 52 37 118 30 140-13 40-68 44-80-10l-2-9c-5-27-4-59-38-78-7-4-14-7-21-9-17-4-35-13-50-24-9-7-16-16-21-27-5-11-17-18-29-18h-117c-13 0-24-6-30-18-5-10-4-49-4-57 0-4 3-7 7-7 4 0 8 3 8 7 0 5-1 43 3 51 3 7 8 10 16 10 121 0 119-2 132 2-1-5-3-11-3-17-1-4 2-8 6-8 4-1 7 2 8 6 2 13 6 26 13 38 4 6 7 16 20 26 14 10 29 18 44 22 9 2 17 5 25 10 35 20 40 52 43 72 2 12 3 19 5 25 9 43 51 34 53-2 0-7 2-69-36-125h-2c-40 0-57-53-23-76-11-8-18-20-18-35 0-14 7-26 18-34-24-17-24-52 0-69-21-14-24-43-8-61h-22c-4 0-7-4-7-8 0-4 3-7 7-7 23 0 129 0 151 0 39 0 57 49 27 74 24 13 29 47 8 67z m-160 38c0 15 13 28 27 28 19 0 104 0 116 0 15 0 28-12 27-28 0-2-12-27-27-27-13 0-95 0-116 0-14 0-27 12-27 27z m152-136c1-16-13-28-28-28h-97c-14 0-27 12-27 27 0 15 13 27 27 27h98c15 0 27-12 27-26z m-20 40c-16 0-95 0-105 0-14 0-27 13-27 28 0 15 13 27 27 27h105c15 0 27-12 27-27 0-15-12-28-27-28z m157 451c-95 94-220 146-354 146-134 0-259-52-354-146-94-95-146-220-146-354 0-134 52-259 146-354 95-94 220-146 354-146 134 0 259 52 354 146 94 95 146 220 146 354 0 134-52 259-146 354z m-354-822c-258 0-468 210-468 468 0 258 210 468 468 468 258 0 468-210 468-468 0-258-210-468-468-468z m44 301c-20 3-76 14-92 25-12 9-27 14-42 14h-123c-12 0-22 10-22 22v103c0 5-4 8-8 8-4 0-7-3-7-8v-103c0-20 16-36 37-36h123c12 0 24-4 34-11 17-14 76-25 98-28 4-1 7 2 8 6 1 4-2 8-6 8z" horiz-adv-x="1000" />

<glyph glyph-name="_ion_mail-open-outline" unicode="&#xe8d1;" d="M914 500c-9 18-23 27-41 36l-341 169c-18 9-46 9-64 0l-341-169c-18-9-31-22-41-36s-13-36-13-54v-360c0-54 45-100 100-100h654c55 0 100 46 100 100v360c0 18-4 36-13 54z m-423 164c5 0 9 4 9 4s9 0 9-4l341-168c0 0 0 0 0 0 0 0 0 0 5 0l-255-196-59 46c-23 18-59 18-86 0l-59-46-255 191c5 0 5 5 9 5l341 168z m391-578c0-31-27-54-55-54h-654c-32 0-55 23-55 54v360c0 0 0 4 0 4l237-177-155-118c-9-9-14-23-4-32 9-9 22-14 31-5l255 196c9 4 23 4 32 0l254-196c5-4 9-4 14-4 4 0 14 4 18 9 9 9 5 23-4 32l-160 113 246 187c0-5 0-9 0-9v-360z" horiz-adv-x="1000" />

<glyph glyph-name="new-trash" unicode="&#xe8d3;" d="M714 582h-428c-20 0-36-16-36-36v-17c0-20 16-36 36-36h428c20 0 36 16 36 36v17c0 20-16 36-36 36z m-417-125c-1 0-2 0-3-1-1 0-2-1-3-2-1-1-2-2-2-3 0-1-1-2-1-4l30-282c0 0 0 0 0 0 1-13 8-25 17-34 10-8 23-13 36-13h258c13 0 26 5 36 13 9 9 16 21 17 34v0l30 282c0 2 0 3-1 4 0 1-1 2-2 3-1 1-2 2-3 2-1 1-2 1-3 1h-406z m278-201c2-2 3-4 4-6 1-2 2-5 2-7 0-3-1-5-2-7-1-2-2-4-4-6-1-2-3-3-6-4-2-1-4-1-6-1-3 0-5 0-7 1-2 1-4 3-6 4l-50 50-50-50c-3-3-8-5-12-5-5 0-10 2-13 5-3 4-5 8-5 13 0 5 2 9 5 13l50 49-50 50c-3 4-5 8-5 13 0 5 2 9 5 12 3 4 8 6 13 6 4 0 9-2 12-5l50-50 50 50c3 3 8 5 12 5 5 0 10-2 13-6 3-3 5-7 5-12 0-5-2-9-5-13l-50-50 50-49z" horiz-adv-x="1000" />

<glyph glyph-name="work" unicode="&#xe8d4;" d="M833 725h-333c-23 0-42-19-42-42v-67l1 0 208-188c26-23 41-57 41-93v-27h84v-83h-84v-83h84v-84h-84v-83h125c23 0 42 19 42 42v666c0 23-19 42-42 42z m-208-167h-83v84h83v-84z m167-166h-84v83h84v-83z m0 166h-84v84h84v-84z m-167-541v318c0 6-1 12-4 17-2 6-5 10-10 14l-208 188c-8 7-18 11-28 11-10 0-20-4-28-11l-208-188c-5-4-8-8-10-14-3-5-4-11-4-17v-318c0-23 19-42 42-42h83c23 0 42 19 42 42v166h166v-166c0-23 19-42 42-42h83c23 0 42 19 42 42z" horiz-adv-x="1000" />

<glyph glyph-name="mail-3" unicode="&#xe8d5;" d="M1241 850h-1198c-12 0-22-4-30-12-8-8-13-19-13-31v-85c0-4 4-9 8-11l630-359c1-1 3-2 5-2 2 0 4 1 5 2l611 359c3 2 13 7 16 9 4 3 8 6 8 11v76c0 12-4 23-12 31-8 8-19 12-30 12z m37-258c-2 1-3 2-5 2-2 0-4-1-6-2l-345-203c-2-1-3-2-4-3-1-2-1-3-1-5-1-1-1-3 0-4 0-2 1-3 2-4l346-373c1-1 2-2 3-3 2 0 3-1 5-1 3 0 5 2 7 4 2 2 3 4 3 7v576c0 2 0 4-1 6-1 1-2 2-4 3z m-456-271c-2 2-4 3-6 3-3 0-5 0-7-1l-139-82c-8-5-17-7-26-7-10 0-19 2-27 7l-122 69c-2 2-4 2-6 2-3 0-5-1-7-3l-462-429c-2-2-3-3-3-5-1-1-1-3-1-4 0-2 1-4 2-5 1-1 2-3 3-3 8-5 15-7 22-7h1186c2 0 4 1 5 2 2 1 3 3 4 5 1 2 1 4 1 6 0 2-1 4-3 5l-414 447z m-441 39c1 1 2 2 2 4 1 2 1 3 1 5 0 2-1 3-2 5-1 1-2 2-3 3l-363 207c-2 1-4 1-5 1-2 0-4 0-6-1-1-1-3-2-4-4 0-1-1-3-1-5v-544c0-2 1-4 2-6 1-1 3-3 4-4 2 0 4-1 6 0 3 0 4 1 6 2l363 337z" horiz-adv-x="1333" />

<glyph glyph-name="camera-add" unicode="&#xe8d6;" d="M669 736l100-110h222v-658h-877v658h222l100 110h233z m48 110h-329l-100-110h-174c-60 0-110-49-110-110v-658c0-60 50-109 110-109h877c61 0 110 49 110 109v658c0 61-49 110-110 110h-174l-100 110z m-164-384c90 0 164-74 164-165 0-90-74-164-164-164-91 0-165 74-165 164 0 91 74 165 165 165z m0 110c-152 0-274-123-274-275 0-151 122-274 274-274 151 0 274 123 274 274 0 152-123 275-274 275z" horiz-adv-x="1105" />

<glyph glyph-name="gallery-add" unicode="&#xe8d7;" d="M884 734v-768h-768v768h768z m0 109h-768c-60 0-109-49-109-109v-768c0-60 49-109 109-109h768c60 0 109 49 109 109v768c0 60-49 109-109 109z m-267-485l-164-212-117 142-165-212h658l-212 282z" horiz-adv-x="1000" />

<glyph glyph-name="percent" unicode="&#xe8f4;" d="M500-150c-276 0-500 224-500 500s224 500 500 500 500-224 500-500-224-500-500-500z m0 952c-248 0-452-204-452-452s204-452 452-452 452 204 452 452-204 452-452 452z m-152-671l371 371c10 10 10 24 0 34s-24 9-33 0l-372-372c-9-9-9-23 0-33 5-5 10-5 19-5s10 0 15 5z m43 424c28 0 57-24 57-57s-24-57-57-57-58 28-58 57 24 57 58 57z m257-295c28 0 57-24 57-58s-24-57-57-57-57 24-57 57 28 58 57 58z" horiz-adv-x="1000" />

<glyph glyph-name="credit-card-3" unicode="&#xe8f5;" d="M854 704c-95 94-220 146-354 146-134 0-259-52-354-146-94-95-146-220-146-354 0-134 52-259 146-354 95-94 220-146 354-146 134 0 259 52 354 146 94 95 146 220 146 354 0 134-52 259-146 354z m-354-822c-258 0-468 210-468 468 0 258 210 468 468 468 258 0 468-210 468-468 0-258-210-468-468-468z m-255 542h-1v-1-237c0-11 8-19 19-19h474c10 0 19 8 19 18h0v1 237 1h-1-510z m-1 35v-1h1 510 0 1v1 55c0 11-8 19-19 19h-474c-11 0-19-8-19-19v-55z m19 109h474c30 0 54-24 54-54v-328c0-30-24-54-54-54h-474c-30 0-54 24-54 54v328c0 30 24 54 54 54z" horiz-adv-x="1000" />

<glyph glyph-name="fork-3" unicode="&#xe8f6;" d="M708 513l-11 35c-13 40-57 62-97 48-22-8-40-25-47-48l-11-35c-9-30-11-61-6-92 5-25 22-47 45-60l-12-268c-2-15 3-29 13-41 22-23 59-25 82-3 2 1 3 2 4 3 10 11 15 26 13 40l-12 269c23 13 40 35 45 60 5 31 3 62-6 92z m-27-86c-4-18-17-34-35-40-6-2-11-9-10-16l12-281c1-6-1-11-5-15-10-10-26-10-36 0-4 4-6 10-5 16l13 280c0 7-4 14-11 16-18 6-31 22-35 40-4 26-3 52 5 76l11 35c8 23 33 34 55 26 12-4 21-14 26-26l10-35c8-24 9-50 5-76z m-231 173c-9 0-17-7-17-17v-143l-45-45c-3-3-5-8-5-12l15-292c0-6-2-13-6-17-9-9-24-9-34 0 0 0 0 0 0 0-4 4-6 11-6 17l15 292c0 4-2 9-5 12l-45 45v143c0 10-8 17-17 17-9 0-17-7-17-17v-150c0-4 2-8 5-11l45-45-14-284c-2-32 22-58 53-59 31-2 58 22 59 53 0 2 0 4 0 5l-14 285 45 45c3 3 5 7 5 11v150c0 10-8 17-17 17z m-100 0c-9 0-17-7-17-17v-133c0-9 8-17 17-17 9 0 17 8 17 17v133c0 10-8 17-17 17z m50 0c-9 0-17-7-17-17v-133c0-9 8-17 17-17 9 0 17 8 17 17v133c0 10-8 17-17 17z m100 250c-276 0-500-224-500-500 0-276 224-500 500-500 276 0 500 224 500 500 0 276-224 500-500 500z m0-967c-258 0-467 209-467 467 0 258 209 467 467 467 258 0 467-209 467-467-1-258-209-466-467-467z" horiz-adv-x="1000" />

<glyph glyph-name="funds-2" unicode="&#xe8f7;" d="M854 704c-95 94-220 146-354 146-134 0-259-52-354-146-94-95-146-220-146-354 0-134 52-259 146-354 95-94 220-146 354-146 134 0 259 52 354 146 94 95 146 220 146 354 0 134-52 259-146 354z m-354-822c-258 0-468 210-468 468 0 258 210 468 468 468 258 0 468-210 468-468 0-258-210-468-468-468z m22 657v-5h4 68c12 0 21-9 21-21 0-12-9-21-21-21h-131c-33 0-60-27-60-60 0-34 27-61 60-61h74c57 0 103-46 103-102 0-57-45-102-101-103h0 0 0 0 0 0 0 0 0 0 0 0 0 0 0 0 0 0 0 0 0 0 0 0 0-1 0 0 0 0 0 0 0 0 0 0 0 0 0 0 0 0 0 0 0 0 0 0 0 0 0 0 0 0 0 0 0 0 0 0 0 0 0 0 0 0 0 0 0 0 0 0 0 0 0 0 0 0 0 0 0 0 0 0 0 0 0 0 0 0 0 0 0 0 0 0 0 0 0 0 0 0 0 0 0 0 0 0 0 0 0 0 0 0 0 0 0 0 0 0 0 0 0 0 0 0 0 0 0 0 0 0 0 0 0 0 0 0 0 0 0 0 0 0 0 0 0 0 0 0 0 0 0 0 0 0 0 0 0 0 0 0 0 0 0 0 0 0 0 0 0 0 0 0 0 0 0 0 0 0 0 0 0 0 0 0 0 0 0 0 0 0 0 0 0 0 0 0 0 0 0 0 0 0 0 0 0 0 0 0 0 0 0 0 0 0 0 0 0 0 0 0 0 0 0 0 0 0 0 0 0 0 0 0 0 0 0 0 0 0 0 0 0 0 0 0 0 0 0 0 0 0 0 0 0 0 0 0 0 0 0 0 0 0 0 0 0 0 0 0 0 0 0 0 0 0 0 0 0 0 0 0 0 0 0 0 0 0 0 0 0 0 0 0 0 0 0 0 0 0 0 0 0 0 0 0 0 0 0 0 0 0 0 0 0 0 0 0 0 0 0 0 0 0 0 0 0 0 0 0 0 0 0 0 0 0 0 0 0 0 0 0 0 0 0 0 0 0 0 0 0 0 0 0 0 0 0 0 0 0 0 0 0 0 0 0 0 0 0 0 0 0 0 0 0 0 0 0 0 0 0 0 0 0 0 0 0 0 0 0 0 0 0 0 0 0 0 0 0 0 0 0 0 0 0 0 0 0 0 0 0 0 0 0 0 0 0 0 0 0 0 0 0 0 0 0 0 0 0 0 0 0 0 0 0 0 0 0 0 0 0 0 0 0 0 0 0 0 0 0 0 0 0 0 0 0 0 0 0 0 0 0 0 0 0 0 0 0 0 0 0 0 0 0 0 0 0 0 0 0 0 0 0 0 0 0 0-12-5v-4-54c0-11-9-21-21-21-12 0-21 10-21 21v54 4h-4-71c-12 0-21 9-21 21 0 12 9 21 21 21h133c33 0 60 27 60 61 0 33-27 60-60 60h-74c-57 0-103 46-103 103 0 56 46 102 103 102h12 4v5 52c0 11 10 21 21 21 12 0 22-10 22-21v-52z" horiz-adv-x="1000" />

<glyph glyph-name="funds-3" unicode="&#xe8f8;" d="M854 704c-95 94-220 146-354 146-134 0-259-52-354-146-94-95-146-220-146-354 0-134 52-259 146-354 95-94 220-146 354-146 134 0 259 52 354 146 94 95 146 220 146 354 0 134-52 259-146 354z m-354-822c-258 0-468 210-468 468 0 258 210 468 468 468 258 0 468-210 468-468 0-258-210-468-468-468z m242 603c-2 8-6 15-13 19-6 4-14 6-22 4l-9-1v5c0 17-13 30-29 30h-431c-16 0-30-13-30-30v-254c0-16 14-30 30-30h55l18-88c3-14 15-23 29-23 2 0 3 0 5 0l423 84c8 2 14 6 19 12 4 7 6 15 4 23l-49 249z m-514-227v254c0 6 4 10 10 10h431c5 0 9-4 9-10v-254c0-6-4-10-9-10h-431c-6 0-10 4-10 10v0z m542-34c-1-2-3-3-6-4l-422-84c-6-1-11 3-12 8l-17 84h356c16 0 29 14 29 30v229l13 2c2 1 5 0 7-1 2-2 4-4 4-7l50-249c0-3 0-5-2-8v0z m-316 178h-33c-13 0-24 10-24 22 0 12 11 22 24 22h57c6 0 11 4 11 10 0 5-5 10-11 10h-29v20c0 5-5 10-11 10-6 0-11-5-11-10v-20h-6c-25 0-46-19-46-42 0-23 21-42 46-42h33c13 0 24-10 24-22 0-12-11-22-24-22h-58c-6 0-11-4-11-10 0-5 5-10 11-10h30v-20c0-6 5-10 12-10 6 0 11 4 11 10v20h5c0 0 0 0 0 0 26 1 46 19 46 42 0 23-21 42-46 42z m145 103h-2v-2-20-2h2 37v-125-2h2 20 2v2 127c0 12-10 22-22 22h-39z m39-167h-2v-2-29-2h2 20 2v2 29 2h-2-20z" horiz-adv-x="1000" />

<glyph glyph-name="box-2" unicode="&#xe8f9;" d="M854 704c-95 94-220 146-354 146-134 0-259-52-354-146-94-95-146-220-146-354 0-134 52-259 146-354 95-94 220-146 354-146 134 0 259 52 354 146 94 95 146 220 146 354 0 134-52 259-146 354z m-354-822c-258 0-468 210-468 468 0 258 210 468 468 468 258 0 468-210 468-468 0-258-210-468-468-468z m-229 569l-66 67c-2 2-3 5-2 7 0 3 2 5 4 7l216 117c4 2 8 1 11-2l66-66 66 66c2 2 4 3 7 3 1 0 3 0 4-1l69-38c2-1 4-3 4-5 1-2 1-5 0-7-2-2-5-4-8-4-1 0-3 0-4 1l-64 34-59-59 200-109 59 60-105 57c-2 1-4 3-4 5-1 3-1 5 0 7 2 3 5 5 8 5 1 0 3-1 4-1l116-63c2-2 4-4 5-7 0-2-1-5-3-7l-66-67 66-66c2-2 3-5 3-7-1-3-3-5-5-7l-67-36v-159c0 0 0-1 0-1 0 0 0 0 0 0 0 0-1-1-1-1 0 0 0 0 0 0 0 0 0 0 0-1 0 0 0 0 0 0 0 0 0 0 0 0 0 0 0-1 0-1 0 0 0 0 0 0 0 0-1 0-1 0 0-1 0-1 0-1 0 0 0 0 0 0 0 0 0 0 0-1 0 0 0 0-1 0 0 0 0 0 0 0 0 0 0 0 0 0 0 0 0-1-1-1 0 0 0 0 0 0 0 0 0 0 0 0 0 0-1-1-1-1l-217-117c0 0 0 0-1 0 0 0 0 0 0 0 0 0 0-1-1-1 0 0 0 0 0 0 0 0 0 0-1 0 0 0 0 0 0 0 0 0-1 0-1 0 0 0-1 0-1 0 0 0 0 0 0 0 0 0-1 0-1 0 0 0 0 0 0 0 0 0-1 1-1 1 0 0 0 0 0 0-1 0-1 0-1 0l-217 117c0 0 0 1-1 1 0 0 0 0 0 0 0 0 0 0 0 0 0 0-1 1-1 1 0 0 0 0 0 0 0 0 0 0 0 0 0 0 0 0-1 0 0 1 0 1 0 1 0 0 0 0 0 0 0 0 0 0 0 1 0 0 0 0 0 0-1 0-1 0-1 0 0 0 0 1 0 1 0 0 0 0 0 0 0 0 0 0 0 0 0 1 0 1 0 1 0 0 0 0 0 0 0 0 0 1 0 1 0 0 0 0 0 0-1 0-1 1-1 1v159l-67 36c-2 1-4 4-4 7-1 2 0 5 2 7l66 66z m155 179l-200-108 59-60 201 109-60 59z m287-282l61 33-59 60-200-109 59-59 139 75c0 0 0 0 0 0z m-204-274l199 107v144l-131-71c-1-1-3-1-4-1-3 0-5 1-7 3l-57 57v-239z m-9 270l198 107-198 108-198-108 198-107z m-213 4c0 0 0 0 1 0l43-24c2-1 4-3 5-5 0-3 0-5-1-7-2-3-5-5-8-5-1 0-3 1-4 1l-31 17v-144l199-107v239l-57-57c-2-2-4-3-7-3-1 0-2 0-4 1l-69 38c-2 1-4 3-4 5-1 2-1 4 0 7 2 2 5 4 8 4 1 0 3 0 4-1l64-34 60 59-201 109-59-60 61-33z m-16 103l-66 67c-2 2-3 5-2 7 0 3 2 5 4 7l216 117c4 2 8 1 11-2l66-66 66 66c2 2 4 3 7 3 1 0 3 0 4-1l69-38c2-1 4-3 4-5 1-2 1-5 0-7-2-2-5-4-8-4-1 0-3 0-4 1l-64 34-59-59 200-109 59 60-105 57c-2 1-4 3-4 5-1 3-1 5 0 7 2 3 5 5 8 5 1 0 3-1 4-1l116-63c2-2 4-4 5-7 0-2-1-5-3-7l-66-67 66-66c2-2 3-5 3-7-1-3-3-5-5-7l-67-36v-159c0 0 0-1 0-1 0 0 0 0 0 0 0 0-1-1-1-1 0 0 0 0 0 0 0 0 0 0 0-1 0 0 0 0 0 0 0 0 0 0 0 0 0 0 0-1 0-1 0 0 0 0 0 0 0 0-1 0-1 0 0-1 0-1 0-1 0 0 0 0 0 0 0 0 0 0 0-1 0 0 0 0-1 0 0 0 0 0 0 0 0 0 0 0 0 0 0 0 0-1-1-1 0 0 0 0 0 0 0 0 0 0 0 0 0 0-1-1-1-1l-217-117c0 0 0 0-1 0 0 0 0 0 0 0 0 0 0-1-1-1 0 0 0 0 0 0 0 0 0 0-1 0 0 0 0 0 0 0 0 0-1 0-1 0 0 0-1 0-1 0 0 0 0 0 0 0 0 0-1 0-1 0 0 0 0 0 0 0 0 0-1 1-1 1 0 0 0 0 0 0-1 0-1 0-1 0l-217 117c0 0 0 1-1 1 0 0 0 0 0 0 0 0 0 0 0 0 0 0-1 1-1 1 0 0 0 0 0 0 0 0 0 0 0 0 0 0 0 0-1 0 0 1 0 1 0 1 0 0 0 0 0 0 0 0 0 0 0 1 0 0 0 0 0 0-1 0-1 0-1 0 0 0 0 1 0 1 0 0 0 0 0 0 0 0 0 0 0 0 0 1 0 1 0 1 0 0 0 0 0 0 0 0 0 1 0 1 0 0 0 0 0 0-1 0-1 1-1 1v159l-67 36c-2 1-4 4-4 7-1 2 0 5 2 7l66 66z m155 179l-200-108 59-60 201 109-60 59z m287-282l61 33-59 60-200-109 59-59 139 75c0 0 0 0 0 0z m-204-274l199 107v144l-131-71c-1-1-3-1-4-1-3 0-5 1-7 3l-57 57v-239z m-9 270l198 107-198 108-198-108 198-107z m-213 4c0 0 0 0 1 0l43-24c2-1 4-3 5-5 0-3 0-5-1-7-2-3-5-5-8-5-1 0-3 1-4 1l-31 17v-144l199-107v239l-57-57c-2-2-4-3-7-3-1 0-2 0-4 1l-69 38c-2 1-4 3-4 5-1 2-1 4 0 7 2 2 5 4 8 4 1 0 3 0 4-1l64-34 60 59-201 109-59-60 61-33z" horiz-adv-x="1000" />

<glyph glyph-name="promo-2" unicode="&#xe908;" d="M500-150c-276 0-500 224-500 500s224 500 500 500 500-224 500-500-224-500-500-500z m0 952c-248 0-452-204-452-452s204-452 452-452 452 204 452 452-204 452-452 452z m-152-671l371 371c10 10 10 24 0 34s-24 9-33 0l-372-372c-9-9-9-23 0-33 5-5 10-5 19-5s10 0 15 5z m43 424c28 0 57-24 57-57s-24-57-57-57-58 28-58 57 24 57 58 57z m257-295c28 0 57-24 57-58s-24-57-57-57-57 24-57 57 28 58 57 58z" horiz-adv-x="1000" />

<glyph glyph-name="writing" unicode="&#xe914;" d="M303-127c0-14-9-23-23-23h-119c-92 0-161 73-161 165v670c0 92 73 165 161 165h431c87 0 160-73 160-165v-220c0-14-9-23-23-23s-23 9-23 23v220c0 64-50 119-114 119h-431c-65 0-115-55-115-119v-665c0-65 50-120 115-120h119c14-4 23-13 23-27z m303 743h-436c-14 0-23-9-23-23s9-23 23-23h436c13 0 22 9 22 23s-9 23-22 23z m22-174c0 14-9 23-22 23h-436c-14 0-23-9-23-23s9-23 23-23h436c13 0 22 9 22 23z m-454-129c-13 0-23-9-23-23s10-23 23-23h248c14 0 23 10 23 23s-9 23-23 23h-248z m656-165l-252-238c-5-5-9-5-9-5l-147-32c0 0-5 0-5 0-4 0-13 4-18 9-4 5-9 14-4 23l36 138c0 4 5 9 5 9l261 248c42 36 101 36 138-5 37-46 37-110-5-147z m-96-27l-73 78-188-179-23-92 101 23 183 170z m69 137c-19 19-51 23-69 5l-37-32 74-78 32 32c18 18 18 50 0 73z" horiz-adv-x="862" />

<glyph glyph-name="box" unicode="&#xe918;" d="M0 825a42 42 0 0 0 44 25h227a40 40 0 0 0 42-27c30-70 60-139 89-209a15 15 0 0 1 16-10h308a14 14 0 0 1 15 10c31 70 62 139 91 209a39 39 0 0 0 41 27h232a34 34 0 0 0 35-54c-33-74-65-148-96-222a57 57 0 0 1-5-21v-261a19 19 0 0 1 9-17 235 235 0 0 0 0-382 25 25 0 0 1-8-14 34 34 0 0 0-34-30h-857c-31 1-42 13-42 43v658a68 68 0 0 1-5 27c-34 75-66 150-99 225a54 54 0 0 1-3 5z m725-907a41 41 0 0 1-7 33 234 234 0 0 0 2 271 35 35 0 0 1 6 20v294h-552v-618z m186 335a168 168 0 1 1 168-168 168 168 0 0 1-168 168z m-117 35a239 239 0 0 0 177 23v225h-177z m-709 495a68 68 0 0 1 3-7c23-55 46-110 71-165a11 11 0 0 1 12-7h155a75 75 0 0 1 8 0c-25 59-50 117-75 174a10 10 0 0 1-7 4z m727-178h164c8 0 9 5 11 9l69 161c0 3 2 6 4 10h-162a13 13 0 0 1-15-10c-22-53-45-105-68-158-1-5-2-8-3-12z m-361-137a541 541 0 0 0 72 0 99 99 0 0 0 83-108 100 100 0 0 0-97-92h-118a100 100 0 0 0-2 201h62z m0-66h-54a34 34 0 1 1 0-67h107a34 34 0 1 1 0 67z m444-324c16 22 28 44 42 65a34 34 0 0 0 51 8 33 33 0 0 0 6-43c-22-34-44-68-66-101a32 32 0 0 0-51-5 1289 1289 0 0 0-50 51 34 34 0 0 0 47 47c6-6 12-13 21-22z" horiz-adv-x="1145" />

<glyph glyph-name="email" unicode="&#xe91b;" d="M500 850c-274 0-500-226-500-500 0-274 226-500 500-500 126 0 252 48 344 135 8 8 8 22 0 30-9 9-22 9-31 0-87-78-196-126-313-126-252 4-456 209-456 461 0 252 204 457 456 457 252 0 457-205 457-457 0-26-5-56-9-83-4-26-31-47-65-52-39-8-96 5-126 61 0 4-5 4-5 9 5 22 9 43 9 69 0 144-117 261-261 261s-261-117-261-261 118-260 261-260c100 0 191 60 235 143 48-61 113-74 161-65 52 8 91 43 100 87 4 30 8 61 8 91-4 274-230 500-504 500z m0-717c-122 0-217 95-217 217s95 217 217 217 217-95 217-217-95-217-217-217z" horiz-adv-x="1000" />

<glyph glyph-name="shop-cart" unicode="&#xe91d;" d="M915-150c-50 0-85 40-85 85 0 45 40 85 85 85s85-40 85-85c0-45-35-85-85-85z m0 120c-20 0-35-15-35-35s15-35 35-35c20 0 35 15 35 35s-15 35-35 35z m-390-120c-50 0-85 40-85 85 0 50 40 85 85 85 50 0 85-40 85-85 0-45-40-85-85-85z m0 120c-20 0-35-15-35-35 0-20 15-35 35-35s35 15 35 35c0 20-15 35-35 35z m540 215h-640c-10 0-20 5-25 20l-115 370c0 0 0 0 0 0l-45 135c-15 55-65 90-120 90h-95c-15 0-25 10-25 25s10 25 25 25h95c80 0 145-50 170-125l35-115h850c10 0 15-5 20-10 5-5 5-15 5-20l-110-375c-5-10-15-20-25-20z m-625 50h605l95 325h-800l45-135h540c15 0 25-15 25-25s-10-25-25-25h-525l40-140z" horiz-adv-x="1200" />

<glyph glyph-name="promo" unicode="&#xe924;" d="M848 850h-10c-19 0-34-15-83-64-78-83-226-240-377-240 0 0 0 0 0 0h-275c-54 0-103-49-103-103v-122c0-64 49-108 103-108h15l68-294c10-40 49-74 93-74h99c24 0 44 15 58 39 15 25 15 49 0 69l-63 103c-25 34-25 73-25 113 0 14 0 24 0 39h34c147 0 295-157 378-240 49-49 64-64 83-64h10c44 0 83 39 83 83v780c-5 44-44 83-88 83z m-799-534v127c0 30 25 54 54 54h255v-235h-39-182-34c-29 0-54 24-54 54z m250-147c0-44 5-93 34-138l64-103c0-5 0-9-5-19-5-10-10-15-14-15h-99c-19 0-39 15-44 34l-63 285h127c0-15 0-30 0-44z m583-177c0-20-14-34-34-34h-5c-10 5-29 29-49 49-78 83-225 235-382 250v240c157 20 304 167 382 250 20 20 44 44 49 49h5c20 5 34-10 34-29v-775z" horiz-adv-x="931" />

<glyph glyph-name="gift" unicode="&#xe934;" d="M895 525h-335c70 30 180 75 210 105 50 50 50 135-5 185-50 50-135 50-185-5-30-30-70-145-95-220-25 75-65 185-95 220-25 25-60 40-95 40-30 0-65-10-90-35-25-25-40-60-40-90 0-35 10-70 35-95 30-30 135-75 205-105h-330c-40 0-75-35-75-75v-95c0-40 35-75 75-75h290v-380h-230c-15 0-25 10-25 25v275c0 15-10 25-25 25s-25-10-25-25v-275c0-40 35-75 75-75h695c40 0 75 35 75 75v275c0 15-10 25-25 25s-25-10-25-25v-275c0-15-10-25-25-25h-230v380h290c40 0 75 35 75 75v95c5 40-30 75-70 75z m-275 250c30 30 80 35 110 5 30-30 35-80 5-115-20-25-125-65-205-100 25 85 65 190 90 210z m-405-55c0 20 10 40 25 55 15 15 35 25 55 25 0 0 0 0 0 0 20 0 40-10 55-25 0 0 0 0 0 0 25-25 60-125 90-210-80 35-185 75-205 100-15 15-20 35-20 55z m-140-390c-15 0-25 10-25 25v95c0 15 10 25 25 25h290v-145h-290z m340-430v575h135v-575h-135z m505 455c0-15-10-25-25-25h-295v145h290c15 0 25-10 25-25v-95z" horiz-adv-x="970" />

<glyph glyph-name="dinner" unicode="&#xe93c;" d="M1270 95c-5 5-10 10-20 10h-60v5c0 335-255 500-505 520 15 10 30 30 30 55 0 40-35 75-75 75s-75-35-75-75c0-25 10-45 30-60-130-5-245-50-335-125-115-95-175-230-175-390v-5h-60c-5 0-15-5-20-10-5-5-5-15-5-20 10-100 170-135 245-135h785l0 0c75 5 235 40 245 135 0 5 0 15-5 20z m-630 615c15 0 25-10 25-25s-15-25-25-25c-15 0-25 10-25 25s10 25 25 25z m-505-605c0 325 260 470 500 470 130 0 255-40 345-120 100-85 155-205 155-355v-5h-1000c0 0 0 10 0 10z m895-115h-785c-55 0-150 25-185 65h1150c-30-45-125-60-180-65z m20 200c5-15-5-25-20-30h-5c-10 0-20 10-25 20-35 195-215 280-375 280-15 0-25 10-25 25s10 25 25 25c180 0 380-100 425-320z" horiz-adv-x="1275" />

<glyph glyph-name="credit-card" unicode="&#xe941;" d="M700 9h-580c-33 0-65 32-65 65v415h994v-65c0-17 11-28 28-28s27 11 27 28v229c0 66-55 121-120 121h-864c-65 0-120-55-120-121v-573c0-71 55-126 120-126h574c16 0 27 11 27 27 0 16-11 28-21 28z m-580 710h864c38 0 65-33 65-66v-109h-994v109c0 33 32 66 65 66z m978-568l-120-115c-5-6-11-6-16-6-6 0-17 6-22 11l-77 77c-10 11-10 27 0 38s28 11 39 0l54-60 104 98c11 11 27 11 38 0 11-16 11-32 0-43z m-125 213c-120 0-219-99-219-219s99-219 219-219 218 99 218 219-98 219-218 219z m0-383c-93 0-164 71-164 164s71 164 164 164 164-71 164-164-77-164-164-164z" horiz-adv-x="1191" />

<glyph glyph-name="comment" unicode="&#xe946;" d="M500-150c-67 0-133 14-195 38-5 0-14 5-19 5l-215-43c-9 0-19 0-28 5-10 4-19 9-24 14-9 10-14 19-19 29s0 28 0 42l43 201c0 4 0 9 0 14-48 109-53 228-19 338 33 109 105 209 200 271 95 67 209 96 328 81l0 0c115-9 219-62 300-143l5-4c81-81 134-191 143-305 10-114-19-233-81-329-67-95-162-166-271-200-53-5-100-14-148-14z m-209 90c9 0 23 0 33-4 95-43 205-48 305-19 100 28 185 95 247 181 57 85 86 190 76 295-9 105-57 200-128 271v0l-5 5c-71 76-171 119-276 129l0 0c-105 14-210-15-295-72-91-57-153-147-181-247-29-100-24-210 19-305 5-14 9-29 5-43l-43-200c0-5 0-10 0-10 0-4 4-4 4-9 0 0 5-5 10-5 5 0 5 0 9 0h10l200 38c5-5 5-5 10-5z m209 458c29 0 48-19 48-48s-19-48-48-48-48 19-48 48 19 48 48 48z m191 0c28 0 47-19 47-48s-19-48-47-48-48 19-48 48 19 48 48 48z m-381 0c28 0 47-19 47-48s-19-48-47-48-48 19-48 48 19 48 48 48z" horiz-adv-x="1000" />

<glyph glyph-name="addresses" unicode="&#xe94a;" d="M525-150c0 0 0 0 0 0-15 0-20 10-25 20l-95 385-385 95c-10 5-20 10-20 25 0 10 5 20 15 25l950 450c10 0 20 0 30-5s5-20 5-30l-450-950c-5-10-15-15-25-15z m-425 530l330-80c10 0 15-10 20-20l85-330 390 825-825-395z" horiz-adv-x="1000" />

<glyph glyph-name="edit" unicode="&#xe94b;" d="M947 797c-70 71-188 71-259 0 0 0 0 0 0 0l-611-612c-6-6-12-11-12-23l-65-253c-6-18 0-30 12-41 12-12 23-18 35-18 6 0 6 0 12 0l259 65c6 0 17 6 23 11l606 612c35 36 53 83 53 130s-18 94-53 129z m-65-194l-600-600-170-41 41 170 600 600c35 36 94 36 129 0 18-17 30-41 30-64s-12-47-30-65z" horiz-adv-x="1000" />

<glyph glyph-name="munterra-status" unicode="&#xe94c;" d="M473-45h54l-27 265c6 58 16 76 35 95 19 19 38 29 95 35-57 6-76 16-95 35-19 19-29 38-35 95l27 265h-54l27-265c-6-57-16-76-35-95-19-19-37-29-95-35 58-6 76-16 95-35 19-19 29-37 35-95l-27-265z m157 395l265-27v54l-265-27z m-260 0l-265 27v-54l265 27z" horiz-adv-x="1000" />

<glyph glyph-name="rouble" unicode="&#xe94d;" d="M583 767c77 0 151-26 210-74 59-48 100-115 116-189 16-75 6-153-28-221-34-68-91-122-160-153-23-50-56-93-99-126-42-33-92-55-145-65-53-10-108-6-159 10-52 16-99 44-137 82-38 38-66 85-82 137-16 51-20 106-10 159 10 53 32 103 65 145 33 43 76 76 125 99 27 58 70 108 124 142 53 35 116 54 180 54z m-166-250c-33 0-66-7-96-19-30-13-58-31-81-55-23-23-42-50-54-81-13-30-19-62-19-95 0-33 6-66 19-96 12-30 31-58 54-81 23-23 51-42 81-54 30-13 63-19 96-19 66 0 130 26 176 73 47 47 74 110 74 177 0 66-27 130-74 176-46 47-110 74-176 74z m166 166c-35 0-70-7-102-21-32-15-61-36-84-62 47 2 94-5 138-22 44-16 84-42 117-76 34-33 60-73 76-117 17-44 24-91 21-138 38 33 65 78 77 127 12 49 9 101-9 148-18 48-50 88-92 117-41 29-91 44-142 44z m-109-464c64 0 109 44 109 108 0 64-45 106-109 106h-125c-5 0-9-4-9-9v-153h-39c-5 0-9-4-9-9v-34c0-5 4-9 9-9h39v-24h-39c-5 0-9-4-9-9v-29c0-5 4-9 9-9h39v-39c0-5 4-9 9-9h45c5 0 9 4 9 9v39h123c5 0 9 4 9 9v29c0 5-4 9-9 9h-123v24h71z m-71 163h60c35 0 57-21 57-55 0-34-22-56-58-56h-59v111z" horiz-adv-x="1000" />

<glyph glyph-name="precheck" unicode="&#xe94e;" d="M500-140c-5 0-15 0-20 5l-155 90-155-90c-10-5-25-5-35 0s-20 20-20 35v800c0 35 15 70 40 95 25 30 60 40 95 40h500c35 0 70-15 95-40 25-25 40-60 40-95v-800c0-15-5-25-20-30-10-5-25-5-35 0l-155 90-155-90c-5-5-15-10-20-10z m-175 175c5 0 15 0 20-5l155-90 155 90c10 5 25 5 35 0l120-70v740c0 15-5 30-20 45-10 10-25 20-45 20h-495c-15 0-30-5-45-20-10-15-15-30-15-45v-735l120 70c0 0 10 0 15 0z m375 100h-400c-20 0-40 15-40 40s15 40 40 40h400c20 0 40-15 40-40s-20-40-40-40z m0 200h-400c-20 0-40 15-40 40s20 35 40 35h400c20 0 40-15 40-40s-20-35-40-35z m0 200h-400c-20 0-40 15-40 40s20 35 40 35h400c20 0 40-15 40-40s-20-35-40-35z" horiz-adv-x="1000" />

<glyph glyph-name="logout" unicode="&#xe94f;" d="M405 321l-143-142c-5-5-14-10-24-10s-19 5-24 14c-14 15-14 38 0 53l81 81h-247c-19 0-38 14-38 38s19 28 38 28h247l-81 86c-14 14-14 33 0 48s38 14 53 0l143-143c4-5 9-14 9-24 0 0 0 0 0 0-5-9-9-19-14-29z m581 334v-610c0-19-5-38-19-52-10-14-29-24-48-29l-286-71c-4 0-14-5-19-5-4 0-14 0-19 0-14 5-24 10-33 19-10 10-19 19-24 29-5 9-9 23-9 38v57h-100c-19 0-38 14-38 38s14 38 38 38h104v491h-104c-19 0-38 14-38 38s19 33 38 33h104v57c0 10 0 24 10 38 5 10 14 24 24 29 9 9 24 14 33 19 14 5 24 5 38 0l286-71c19-5 33-15 47-34 10-14 20-33 15-52z m-72 0c0 5 0 9-4 9 0 0-5 5-5 5l-286 72c0 0 0 0-5 0 0 0 0 0 0 0 0 0-4 0-4 0 0 0-5-5-5-5 0 0 0-5 0-5v-757c0-5 0-5 0-10 0 0 0-5 5-5 0 0 4 0 4 0 0 0 5 0 5 0l286 72c0 0 0 0 0 0 5 0 5 0 5 5 0 0 4 5 4 9v610z" horiz-adv-x="1000" />

<glyph glyph-name="comment-6" unicode="&#xe99c;" d="M733 560v20h-466a67 67 0 0 1-67-67v-326a67 67 0 0 1 67-67h466a67 67 0 0 1 67 67v326a67 67 0 0 1-67 67v-40a27 27 0 0 0 27-27v-326a27 27 0 0 0-27-27h-466a27 27 0 0 0-27 27v326a27 27 0 0 0 27 27h466z m-466-23v-20h464l3 0 4 19-13 15c-40-37-175-160-221-200h0l-3 0h-2l-3 0h0c-46 40-180 165-221 200l-13-15 4-19 5 0-4 19v0l-4 20-5 0-40-8 29-26 221-200h0a44 44 0 0 1 61 0h0l221 200 30 26-44 9h-473z m-24-350h20v324l0 5-19 4-14-15 185-169 13 15-12 15c-62-52-155-141-186-171l13-15 20 4 0 7-20-4h0l-19-4 0-6 7-36 26 25c31 30 125 120 185 170l17 14-17 16c-60 55-153 140-184 168l-26 24-8-40v-334z m490-24v20h-464l-3 0-4-19 13-15c32 31 127 120 185 170l-13 15-13-14 20-19h0a67 67 0 0 1 92 0h0l20 19-13 14-13-15c58-50 153-139 185-170l13 15-4 19-5 0 4-19v0l4-20 6 0 37 8-28 26c-32 31-126 120-186 172l-14 11-12-12-20-19h0a26 26 0 0 0-40 0h0l-20 18-13 12-14-11c-59-50-153-139-185-170l-28-27 42-8h475z m24 24l-20 4 0-6 20-5 13 15c-31 30-124 120-186 171l-12-15 13-15 185 169-14 15-19-4 0-5v-324h20l-20 4 20-4h20v328l-2 9-7 34-26-24c-31-28-124-113-185-168l-17-16 17-14c60-52 153-140 185-170l26-25 8 40v4z m-490 377v-20h466a30 30 0 0 0 31-31v-326a30 30 0 0 0-31-31h-466a30 30 0 0 0-31 31v326a30 30 0 0 0 31 31v40a71 71 0 0 1-71-71v-326a71 71 0 0 1 71-71h466a71 71 0 0 1 71 71v326a71 71 0 0 1-71 71h-466z m0-32l13 15-4 3-13-14 5-20h465l5 20-14 14-4-3h0c-44-40-172-157-218-200h0l-2 0h-2l-3 0h0c-45 40-173 158-217 200h2l-14-15-13-14 218-200h0a44 44 0 0 1 61 0h0l217 200h0l3 3 28 25-38 10h0l-4 0h-473l-5 0h-3l-36-10 31-28h0z m234-180l-217 196-13-15v-20h458v20l-13 15-215-196h0l0 0h0l0-3v3h0l0-3v-37a40 40 0 0 1 27 12h0c45 40 168 153 215 196l40 34h-560l40-34c47-43 170-156 215-196l27 29z m-253-168l14-15c33 32 120 114 178 164h0l3 3 17 14-20 20h0l-178 160-4 3-23 21-10-31h0l0-4v-337l0-5h0v0l9-32 28 25h0l-14 14-14 15-3-3 13-15 20 6v0l0 3-19-5 20 0v329l-20 0 19-5 0 3h0l-19 6-14-14 3-4h0c34-30 120-110 179-163l3-3 14 15-13 15-3-2h0c-60-50-146-132-180-164h0z m0 328l-13-15 176-160 13 15-13 15c-57-50-142-129-177-163l14-14h20v322h-20l-13-15 13 15h-20v-370l34 32c35 33 120 113 176 160l16 15-16 15-176 160-34 30v-42z m488-344l14 14c-35 34-125 120-183 168l-14 12-13-12-20-20h0a26 26 0 0 0-40 0h0l-20 18-13 12-14-11c-58-50-148-135-183-169h0l-3-3-26-24 35-10h0l4 0h476l5 0h0l2 0 34 10-29 27h0l-14-14-13-15 3-3 14 14-6 20h0l-2 0 4-20 0 20h0l0-20v20h-467v-20l0 20h0l0-20 4 20-3 0h0l-5-20 14-14 3 5h0c35 33 125 120 182 167l-13 15-14-15 21-18h0a67 67 0 0 1 92 0h0l20 18-14 15-12-15c56-49 146-134 181-167h0z m-6 0l14 14c-36 35-120 115-177 163l-13 12-14-12-17-16h0a31 31 0 0 0-43 1h0l-18 16-13 12-13-12c-57-48-141-128-178-162l-36-35h560l-36 35-14-15v20h-462v-20l14-15c36 35 120 115 176 160l-13 16-13-15 18-16h0a70 70 0 0 1 97 0h0l18 16-14 15-13-15c55-47 140-127 176-160l14 14v0z m24 21l13 15c-35 33-120 112-177 162l-13-15 14-15 176 160-13 15h-20v-323h20l13 14-13-14h20v369l-34-30-176-160-17-15 17-15c57-49 141-129 176-160l34-32v44z m0 328l13-15 3 4-13 14-19-6v0l19 6-19-4 0-3h0l20 0h-20v-327l19 0-19 5 0-3v0l20-6 13 15-3 3h0c-34 32-120 114-180 165h0l-3 3-13-15 14-15 3 3h0c59 53 145 133 179 163h0l-14 15-16 11-178-160h0l-3-3-17-15 20-17h0c58-50 145-133 178-164h0l4-3 24-23 9 33h0l0 4v337l0 5v2l-10 29-27-25h0z m-487 43v-20h466a27 27 0 0 0 27-27v-326a27 27 0 0 0-27-27h-466a27 27 0 0 0-27 27v326a27 27 0 0 0 27 27v40a67 67 0 0 1-67-67v-326a67 67 0 0 1 67-67h466a67 67 0 0 1 67 67v326a67 67 0 0 1-67 67h-466z m573 130l14 14a500 500 0 0 1-708-708 500 500 0 0 1 708 708l-14-14-14-14a460 460 0 0 0 0-651 460 460 0 0 0-651 0 460 460 0 0 0 0 651 460 460 0 0 0 651 0z m-340-790v20a429 429 0 0 0-304 734 429 429 0 1 0 608-608 427 427 0 0 0-304-126v-40a470 470 0 1 1-470 470 470 470 0 0 1 470-470z" horiz-adv-x="1000" />

<glyph glyph-name="home" unicode="&#xe99d;" d="M125-125l0 37c0 40 0 79 0 119q0 94 0 188c0 2 0 4 0 6v18c3 5 9 6 13 10 12 11 23 21 35 31a19 19 0 0 0 5 3 75 75 0 0 1 10 9c2 4 5 6 8 9l72 63c15 13 30 26 45 39 2 2 4 4 6 5 19 17 38 34 56 51 4 4 10 7 13 12l4 3c12 9 23 19 34 29 3 3 6 5 9 8a26 26 0 0 1 3 3 197 197 0 0 0 22 19c14 13 29 26 43 38s30 27 45 40c3 2 6 6 10 8a6 6 0 0 0 9 0c12-10 23-20 35-30 7-7 15-14 23-21 11-10 23-20 35-30 15-13 30-27 45-40l44-39 52-46c15-13 29-25 43-38 10-9 21-18 31-27 36-32 72-64 108-96a77 77 0 0 1 13-9 11 11 0 0 0 6-11 27 27 0 0 1 0-3q0-174 0-348c0-4 1-8-3-11l-4-9c-3-2-4-6-7-8a34 34 0 0 0-20-6c-82-1-166-1-249-1a30 30 0 0 0-31 29c0 3 0 6 0 9v240a33 33 0 0 1-13 28 31 31 0 0 1-19 7h-186a32 32 0 0 1-32-35c0-50 0-101 0-153 0-30 0-60 0-90a31 31 0 0 0-26-35 16 16 0 0 0-6 0h-250a14 14 0 0 0-5 0l-6 1a26 26 0 0 0-19 19c-1 2 0 4-1 5z m32 476c-11-9-22-19-32-29-1-1-1-2-2-3-10-8-19-17-29-25a17 17 0 0 0-10-5 15 15 0 0 1-7-2 5 5 0 0 0-6 0c-5 2-11 2-15 6-5 0-7 5-10 8-11 12-23 24-34 37a15 15 0 0 0-6 9 38 38 0 0 0-6 27 25 25 0 0 0 9 16 234 234 0 0 0 27 23c1 1 4 1 4 3a47 47 0 0 0 16 14c3 0 5 4 7 5a86 86 0 0 0 17 17q24 21 47 41l52 46c15 13 29 26 43 39l43 38c14 13 29 26 44 38l46 41c16 14 31 27 45 40s29 25 44 38l44 39a41 41 0 0 0 12 9 90 90 0 0 0 45 27 122 122 0 0 0 26 2 76 76 0 0 0 51-25 10 10 0 0 0 3-4c13-12 25-23 39-34a88 88 0 0 0 20-16l87-76c12-10 23-21 35-31a12 12 0 0 1 5-4 11 11 0 0 1 1 7c0 29 0 59 0 89a32 32 0 0 0 25 32 178 178 0 0 0 37 0c3 0 5 0 8 0 13 0 26 0 39 0s28 0 43 2a35 35 0 0 0 38-39c0-83 0-166 0-250a19 19 0 0 1 7-16c21-18 42-36 62-55 5-4 10-8 15-12a13 13 0 0 0 4-6l23-21a44 44 0 0 0 11-14 23 23 0 0 0 2-20 32 32 0 0 0-8-14c-15-14-27-30-41-45a34 34 0 0 0-47-2c-22 17-42 36-62 54s-43 37-64 56c-2 2-5 5-8 7a230 230 0 0 0-22 19c-21 20-42 39-65 57l-44 39c-17 16-35 31-53 47-9 8-19 17-29 26-29 26-59 52-88 77l-13 11a30 30 0 0 1-40 0c-20-17-40-35-59-52l-47-41c-18-16-36-32-55-48l-5-5a48 48 0 0 1-6-5c-1-1-2-2-3-3-17-15-34-30-51-45a24 24 0 0 1-3-3c-4-4-10-8-14-12-17-15-33-29-49-43s-32-29-48-42c-13-12-27-24-40-36a13 13 0 0 0-5-3z" horiz-adv-x="1126" />

<glyph glyph-name="my_adigeya" unicode="&#xe99e;" d="M854 704c-95 94-220 146-354 146-134 0-259-52-354-146-94-95-146-220-146-354 0-134 52-259 146-354 95-94 220-146 354-146 134 0 259 52 354 146 94 95 146 220 146 354 0 134-52 259-146 354z m-354-822c-258 0-468 210-468 468 0 258 210 468 468 468 258 0 468-210 468-468 0-258-210-468-468-468z m131 620c-42 11-87 1-111-25-1-1-3-3-4-4 5 55 51 97 107 97 8 0 15 7 15 15 0 9-7 16-15 16-45 0-85-22-110-55-10 49-53 85-105 85h-62c-8 0-15-6-15-15 0-59 48-107 108-107h54c-4-12-7-24-8-36-2 1-4 2-5 4-26 27-67 38-109 28-44-11-78-44-91-87-11-39-13-86-5-129 8-48 26-92 51-126 27-36 60-56 91-56 13 0 25 3 36 10 15 7 31 12 47 12 16 0 32-5 47-12 11-7 23-10 36-10 31 0 64 20 91 56 25 34 43 78 52 126 7 42 5 87-5 125-12 45-45 77-90 88z m-192 37c-37 0-68 27-76 62h45c37 0 68-27 75-62h-44z m256-245c-7-43-24-82-46-112-21-28-45-44-66-44-7 0-15 2-21 6-19 10-41 15-62 15-21 0-43-5-62-15-6-4-13-6-21-6-21 0-45 16-66 44-22 30-39 69-46 112-7 38-5 82 4 115 10 34 35 57 69 66 31 7 62 0 80-19 11-12 26-18 42-18h0 0c16 0 31 6 42 18 17 17 51 24 82 16 20-5 55-20 68-66 9-33 10-75 3-112z m13-20l-74 63c-4 4-10 5-16 5-5 0-11-2-15-5l-21-23-76 81c-3 4-9 6-15 6-6 0-12-2-15-6l-95-103-17 19c-4 4-10 6-16 6-5 0-11-2-15-6l-41-46c-6-7-5-16 4-22 3-2 8-3 11-3 6 0 12 3 15 7l26 27 8-9c12-13 33-14 45-1l90 94 68-72c12-14 34-14 47-1l14 15 60-46c3-4 9-6 15-6 4 0 8 1 12 3 6 7 8 16 1 23z" horiz-adv-x="1000" />

<glyph glyph-name="share-4" unicode="&#xe99f;" d="M826 676c-87 88-203 136-326 136-123 0-239-48-326-136-87-87-135-203-135-326 0-123 48-239 135-326 87-88 203-136 326-136 123 0 239 48 326 136 88 87 136 203 136 326 0 123-48 239-136 326z m-326-758c-238 0-432 194-432 432 0 238 194 432 432 432 238 0 432-194 432-432 0-238-194-432-432-432z m-73 631c12-29 40-49 73-49 44 0 79 35 79 79 0 43-35 79-79 79-43 0-78-35-79-78-90-32-158-119-158-223h32c0 85 54 162 132 192z m73 77c26 0 47-21 47-47 0-26-21-47-47-47-26 0-47 21-47 47 0 26 21 47 47 47z m0-475c-47 0-93 16-129 46 20 24 24 59 7 89-22 38-70 51-108 29-37-22-50-70-29-108 21-36 67-50 105-31 43-36 97-57 154-57 36 0 70 8 101 23l-13 29c-28-14-57-20-88-20z m-231 72c-13 23-6 51 17 65 23 13 52 5 65-18 13-22 5-51-18-64-22-14-51-6-64 17z m464 90c2 15 4 29 4 44 0 77-38 150-102 194l-18-26c55-38 88-101 88-168 0-11-1-22-2-33-32 5-64-9-81-38-22-38-9-86 29-108 38-22 86-9 108 29 21 37 9 84-26 106z m-2-90c-13-23-42-31-64-17-23 13-31 42-18 64 13 23 42 31 65 18 23-14 30-42 17-65z" horiz-adv-x="1000" />

<glyph glyph-name="share-5" unicode="&#xe9a0;" d="M795 451c-3 2-7 3-11 2l-95-35c-12-4-21-13-26-24-1-2-2-5-2-7-17 5-47 15-77 30-46 24-81 12-111-11-15 0-36-2-56-4-13-1-25-2-35-3-1 6-2 12-5 18-5 11-14 20-26 24l-95 35c-4 1-8 1-11-1-3-3-5-6-5-10v-233c0-7 5-12 12-12h34c14 0 28 7 36 18 5-4 11-8 16-12 14-10 29-21 35-27 44-36 96-76 107-82 9-7 27-14 40-14 5 0 18 0 28 8 9-4 19-3 29 1 9 4 17 12 21 21 10-1 20 0 30 5 8 4 15 11 18 19 9-1 18 2 26 8 11 9 17 22 15 35l30 16c9-12 22-19 37-19h34c7 0 12 5 12 11v234c0 4-2 7-5 9z m-487-192c-4-10-13-16-22-16h-23v205l80-29c6-2 10-6 13-12 3-5 3-12 1-18l-49-130z m350-76c-4-3-10-4-12-2 0 0 0 0-1 0 0 1 0 1 0 1-9 7-46 45-69 69-4 5-12 5-16 0-5-4-5-11-1-16 6-6 49-51 67-67-2-5-7-8-9-9-7-4-15-4-18-1 0 0 0 0 0 0-1 0-1 1-1 1-14 11-49 48-57 57-4 5-12 5-16 1-5-5-5-12-1-17 0 0 35-37 54-55-2-5-6-10-11-12-3-1-9-2-16 3-16 14-50 50-57 57-4 4-11 5-16 0-5-4-5-12-1-16 8-9 31-33 49-50-2 0-4 0-6 0-8 0-21 5-28 9-8 5-59 44-104 81-6 6-22 17-36 28-7 5-14 10-19 14l44 117c11 0 26 2 42 3 9 1 18 2 27 2-14-13-33-38-31-61 1-10 7-19 17-25 19-12 54-2 71 19 11 2 19 4 27 8 13-12 32-27 51-43 33-28 71-59 81-77 6-10-2-17-4-19z m20 38c-16 21-49 49-82 76-22 18-43 35-56 48-4 4-9 4-14 2-12-6-17-9-30-10-4-1-7-3-9-6-9-14-35-21-43-16-4 3-5 6-6 8-1 10 9 27 26 44 41 41 71 49 109 29 36-18 72-29 87-33 1-2 1-3 2-5l45-121-29-16z m99-1h-23c-9 0-18 6-22 15l-49 131c-2 6-2 12 1 18 3 6 7 10 13 12l80 29 0-205z m82 449c-90 91-211 141-339 141-128 0-249-50-339-141-91-90-141-211-141-339 0-128 50-249 141-339 90-91 211-141 339-141 128 0 249 50 339 141 91 90 141 211 141 339 0 128-50 249-141 339z m-339-789c-248 0-450 202-450 450 0 248 202 450 450 450 248 0 450-202 450-450 0-248-202-450-450-450z" horiz-adv-x="1040" />

<glyph glyph-name="www" unicode="&#xe9a1;" d="M965 428c-37 227-231 391-462 391-9 0-18 0-27-1-216-11-394-169-433-384-11-48-6-116-6-117 17-238 224-432 462-432l3 0c124 1 229 42 322 127 66 60 140 174 147 313-1 0 3 70-6 103z m-179 234c8 0 14-6 18-10 14-16 28-31 40-47 22-29 40-60 53-94l8-22-22-1c-4 0-8-1-12-1l-86 0c-10 0-16 4-19 13-15 45-28 79-45 109l-1 4-1 10 12 7c4 2 8 5 12 7 9 6 18 12 27 17 5 5 10 8 16 8z m120-221c-1-4-2-8-3-12-13-54-27-108-40-162-1-6-3-7-9-7-13 0-27 0-40 0-5 0-7 1-8 6-5 34-11 69-16 103-1 3-1 6-3 10 0-1-1-3-1-4-7-35-13-71-19-106-1-5-3-8-9-8-14 0-28 0-43-1-4 0-5 1-6 5-13 57-26 115-39 172 0 1 0 2 0 4h51c6-40 12-80 18-121 1 0 2 0 2 0 2 8 3 16 5 23 6 30 11 60 17 91 1 5 3 7 8 7 14 0 29 0 43 0 1 0 4-4 4-6 5-29 9-58 13-87 2-10 3-20 7-30 3 17 5 33 8 50 4 22 7 45 11 67 0 2 2 5 4 5 15 1 29 1 44 1-1 1 0 0 1 0z m-263 311c34-12 66-28 99-48l17-11-25-15c-10-6-19-12-28-17l-3-1h-3c-7 0-13 5-15 7-8 9-15 18-23 27l-16 19-5 5c-4 5-8 9-12 14l-23 32 37-12z m-119-4l6 3 9 5 6-5c40-30 73-63 101-99l11-14-17-5c-33-10-66-17-103-21l-13-2v138z m17-175l5 1c21 3 43 6 64 11 12 3 24 6 37 10 5 2 10 3 15 5 2 1 4 1 7 1 7 0 12-3 16-9 15-26 26-54 38-88l6-16h-205l-1 12c0 0 0 6 0 7l0 14c0 11 0 21 0 32-1 7 2 18 18 20z m-81 179l9 4 14-7v-139l-14 1c-40 4-72 11-103 21l-16 7 11 14c29 35 61 67 99 99z m24-196c0-12 0-54 0-54 0-3-1-5-1-6l-3-9h-184l-14 2 2 14c0 2 1 4 2 6l34 78c5 12 14 13 19 13 3 0 6-1 9-2 38-13 77-21 122-26 13-1 14-12 14-16z m-219 148c33 22 65 38 99 49l33 9-20-29c-1-1-2-3-3-4l-16-19c-12-14-24-28-35-42-4-5-9-8-15-8-4 0-7 1-11 3-7 5-14 9-22 14l-25 16 15 11z m-155-193c2 6 5 11 7 17 20 43 48 84 83 122 7 8 12 13 19 13 5 0 9-2 13-5 1-1 3-2 5-3 7-4 14-9 21-13 6-4 11-7 17-11 10-6 12-15 8-25l-4-9c-4-9-9-18-12-27-7-19-14-38-21-57l-5-13c-1-3-5-13-18-13-24 0-48 0-72 0l-29 0c-1 0-3 0-7 1l-14 2 9 21z m-8-69c13 0 27 0 40 0 4 0 5-2 5-6 5-34 10-69 14-103 1-5 2-9 4-14 1 2 1 4 1 6 7 36 14 73 21 109 1 5 3 8 8 8 13 0 26 0 39 0 5 0 7-2 8-8 5-35 11-70 17-105 0-2 1-5 3-7 2 9 3 18 5 28 4 28 9 56 13 83 0 3 3 7 5 7 15 1 30 0 46 0-4-17-8-32-12-48-10-42-21-84-31-126-1-5-3-7-8-7-14 0-27 0-41 0-6 0-7 2-8 7-6 37-12 75-18 112-1 0-1 0-2 0-7-40-14-80-22-120-14 0-27 0-41 0-14 0-14 0-17 14-12 53-24 106-37 160 0 9 1 10 8 10z m131-407h-3c-5 0-10 2-13 5l-8 8c-9 9-19 19-28 29-30 34-53 73-71 116-1 2-1 4-2 6l-1 5 0 3 3 10 9 1c2 0 5 1 7 1h15l82 0c9 0 15-5 18-14 9-29 20-59 34-87 4-7 22-43 22-43l-21-13c-13-8-26-16-39-24l-4-3z m131-83c-33 12-61 25-86 41l-5 6-2 14 15 8c8 4 15 8 23 12l3 1h3c6 0 12-4 15-7 9-11 19-21 28-32l11-13c3-4 6-7 9-11l18-30-32 11z m119 18c0-2 0-4-1-7l-1-16-15 5c-17 6-87 75-95 92l-6 12 15 6c2 1 5 2 8 3l11 2c21 4 42 8 63 12 3 0 5 1 6 1 6 0 9-2 11-4 5-5 5-11 5-16l-1-90z m-17 147c-34-1-67-9-95-17-6-2-12-3-18-6-3-1-6-2-8-2-5 0-13 2-19 13-2 5-5 9-7 14-4 7-7 14-11 22-6 13-11 26-17 40l-5 12c-1 2-1 4-2 7l-5 19 187 0c4 0 9-1 14-5 5-5 5-12 5-14 0-21 0-42 0-63-1-17-12-20-19-20z m53 148c-5 33-11 66-17 100-1 4-2 8-4 12-3-14-5-29-8-43-4-22-8-44-12-66-1-6-3-9-9-8-13 0-26 0-39 0-5 0-8 1-9 7-13 56-26 112-39 169 0 2-1 4-1 6 16 0 31 0 47 0 5 0 6-3 6-8 5-37 10-74 16-110 0-2 1-5 3-7 8 42 16 84 23 125h53c6-42 13-82 19-123 1 0 1 0 2 0 2 11 3 22 5 33 4 28 9 56 13 84 1 5 3 7 8 7 14 0 27 0 42 0-1-5-2-8-2-12-13-54-27-109-40-163-1-6-4-8-10-8-13 1-27 0-40 0-5 0-7 1-7 5z m4-130l0 21c0 15 0 30 0 45 0 2 0 8 5 13 5 5 11 5 13 5l160-1c2 0 5 0 7 0l4 0 14-3-3-15c0-2-1-4-1-5-12-35-25-63-40-89-4-6-8-13-18-13-4 0-7 1-11 2-28 9-57 16-87 20-7 1-13 1-20 2l-11 1-10 2-2 10c0 1 0 3 0 5z m23-182l-6-5-7 3-9 5v124l13-1c32-3 63-8 93-18l18-5-12-14c-27-33-56-61-90-89z m184 42c-24-17-51-30-87-43l-9-2-12 15c0 0 19 21 22 25 11 12 21 25 32 37 5 6 11 8 15 8 4 0 7-1 11-3 6-4 12-7 19-10l26-14-17-13z m164 193c-4-8-7-16-11-24-22-45-53-86-93-123-2-1-6-6-13-6-4 0-7 1-11 4-11 7-23 14-35 22l-23 14c0 0 12 23 14 27 15 28 28 59 41 101 4 13 13 15 20 15l96 0h0c2 0 4 0 7-1l19-3-11-26z" horiz-adv-x="1000" />

<glyph glyph-name="onepricecoffee" unicode="&#xe9b0;" d="M391-39h-57c-5 0-9-2-13-5-3-4-5-8-5-13 0-4 2-9 5-12 4-4 8-5 13-5h57c5 0 9 1 12 5 4 3 6 8 6 12 0 5-2 9-6 13-3 3-7 5-12 5z m273 780l0 0-14 64c0 25-133 45-296 45s-296-20-296-45l-14-64c-27-11-43-23-43-37v-49c0-42 158-76 353-76s353 35 353 76v49c0 14-16 26-43 37z m-359-328h6c2 0 4 0 5 2 2 1 2 3 2 5 0 2 0 3-2 4-1 2-3 2-5 2h-6c-2 0-3 0-5-2-1-1-2-3-2-4 0-2 1-4 2-5 2-2 3-2 5-2z m-1 8c0 0 1 1 1 1h6c1 0 2-1 2-1 0 0 0-1 0-1 0-1 0-1 0-2-1 0-1 0-2 0h-6c0 0-1 0-1 0-1 1-1 1-1 2 0 0 0 1 1 1z m26 10h5c2 0 4 0 6 2 1 1 2 4 2 7v11c0 2-1 5-3 6-2 1-5 2-6 2h-11v-46h8v18z m0 21h4c0 0 1 0 2 0 0-1 0-2 0-3v-9c0-1 0-2 0-2-1 0-1 0-2 0h-3v14z m4-45c-3 0-5-1-7-3-2-2-3-5-3-8v-25c0-3 1-6 3-8 2-2 4-3 7-3 3 0 5 1 8 3 2 2 3 5 3 8v25c0 3-2 6-3 8-3 2-5 3-8 3z m4-37c0-1-1-1-1-2-1-1-2-1-3-1-1 0-2 0-3 1 0 1-1 1-1 2v26c0 1 0 2 1 3 1 0 2 1 3 1 1 0 2-1 3-1 0-1 1-2 1-3v-26z m-30 29c1 0 2 1 3 1 1 0 2-1 2-1 1-1 1-2 1-3 0 0 1-3 1-3l0 0 6 1 0 2c0 4-1 6-3 8-2 2-4 3-7 3-3 0-6-1-8-3-2-2-3-5-3-8v-25c0-3 1-5 3-7 2-3 5-4 8-4 3 0 5 1 7 4 2 1 3 3 3 5l0 0-6 2 0 0c-1-1-1-2-2-3 0 0-1-1-2-1-1 0-2 1-3 1 0 1-1 2-1 3v25c0 1 1 2 1 3z m46 142c-61 0-216 4-311 39l0 0 78-662c0-38 104-68 233-68s233 30 233 68l91 666c-93-38-260-43-324-43z m-76-48h167v-167h-167v167z m167-417v-44h-166v43l77 35h-77v44h166v-43l-2 0-77-35h79z m-166 106v107h39v-63h25v63h38v-63h26v63h38v-107h-166z m152-282c-12-11-26-18-43-18h-53c-16 0-31 7-43 18-12 12-18 27-18 43 0 17 6 32 18 44 12 11 27 18 43 18h53c17 0 32-7 43-18 12-12 18-27 18-44 1-16-6-31-18-43z m-29 556c-2 2-5 3-8 3-3 0-5-1-7-3-2-2-3-5-3-7v-26c0-3 1-5 3-7 2-2 4-4 7-4 3 0 6 2 8 4 1 1 2 3 3 5l0 0-7 2 0 0c0-1-1-2-1-3-1 0-2-1-3-1-1 0-2 1-2 1-1 1-1 2-1 3v26c0 0 0 1 1 2 0 1 1 1 2 1 1 0 2 0 3-1 0-1 1-2 1-2 0-1 0-3 0-3l0-1 7 1 0 2c0 4-1 6-3 8z m-39-23c2 1 3 4 3 7v11c0 2-1 5-3 6-2 1-5 2-6 2h-11v-46h7v18h3l4-18h7l-5 20c1 0 1 0 1 0z m-4 7c0-1 0-2 0-2-1 0-2 0-2 0h-4v14h3c1 0 2 0 3 0 0-1 0-2 0-3v-9z" horiz-adv-x="708" />

<glyph glyph-name="transaction_2" unicode="&#xe9b8;" d="M1241 91l-235-235c-6-6-18-6-24-6s-17 0-23 6c-12 12-12 29 0 41l182 182h-1100c-17 0-29 12-29 30s12 35 29 35h1106l-182 183c-12 11-12 29 0 41s29 11 41 0l235-236c0 0 0 0 0 0l24-23-24-18c0 0 0 0 0 0z m-1217 471c0 0 0 0 0 0l235-235c6-6 12-6 18-6s17 0 23 6c12 11 12 29 0 41l-188 188h1106c17 0 29 12 29 29s-12 30-29 30h-1106l182 182c12 12 12 30 0 41s-29 12-35 6l-235-235c0 0 0 0 0 0l-24-24 24-23z" horiz-adv-x="1259" />

<glyph glyph-name="transaction_3" unicode="&#xe9b9;" d="M360-62c-5-9-13-18-22-18 0 0-5 0-5 0-197 48-333 220-333 421 0 202 132 373 325 421l-119 44c-13 5-17 18-13 31 4 9 13 17 26 13l189-66-66-193c-4-8-13-13-22-13-4 0-4 0-9 0-8 5-17 18-13 26l40 114c-176-43-298-197-298-377 0-180 122-337 298-377 17 0 26-13 22-26z m539 416c0 202-136 378-333 421-13 5-22-4-26-17-5-13 4-22 17-26 176-40 298-198 298-378 0-179-122-333-298-377l40 114c4 13 0 22-14 27-13 4-22 0-26-14l-66-188 189-66c4 0 4 0 9 0 8 0 17 4 22 13 4 13 0 22-14 26l-122 44c193 53 324 224 324 421z m-504-153v-66c0-13-9-22-22-22s-22 13-22 22v66h-66c-13 0-22 9-22 22s9 22 22 22h66v241c0 13 9 22 22 22h131c62 0 110-48 110-110s-48-109-110-109h-109v-44h109c14 0 22-9 22-22s-8-22-22-22h-109z m0 132h109c36 0 66 30 66 65s-30 66-66 66h-109v-131z" horiz-adv-x="899" />

<glyph glyph-name="transaction_1" unicode="&#xe9ba;" d="M0 466c0 5 5 5 5 10l369 369c10 5 31 5 42 0s10-27 0-37l-326-326h989c16 0 26-11 26-27s-10-26-26-26h-1053c-5 0-5 0-10 0-5 5-11 11-16 16 0 5 0 16 0 21z m1105-211c-5 6-5 11-15 16-6 0-6 0-11 0h-1053c-15 0-26-10-26-26s11-27 26-27h990l-321-321c-11-10-11-26 0-37 5-5 10-5 21-5s16 0 21 5l368 369c0 0 6 5 6 11-6 0-6 10-6 15z" horiz-adv-x="1105" />

<glyph glyph-name="lock" unicode="&#xe9bb;" d="M643 421h-72v215c0 119-95 214-214 214s-214-95-214-214v-215h-72c-38 0-71-33-71-71v-429c0-38 33-71 71-71h572c38 0 71 33 71 71v429c0 38-33 71-71 71z m-452 215c0 90 76 166 166 166s167-76 167-166v-215h-333v215z m476-715c0-14-10-23-24-23h-572c-14 0-23 9-23 23v429c0 14 9 24 23 24h572c14 0 24-10 24-24v-429z" horiz-adv-x="714" />

<glyph glyph-name="history" unicode="&#xe9bc;" d="M1095 350c0-276-224-500-500-500-195 0-376 119-457 300-5 14 0 24 14 33 15 5 24 0 34-14 71-167 238-271 414-271 248 0 452 204 452 452s-209 452-457 452c-247 0-447-195-452-442l52 52c10 9 29 9 38 5s10-24 0-34l-95-95c0 0-5-5-9-5-5 0-5 0-10 0s-5 0-9 0c-5 0-5 5-10 5l-95 95c-5 5-5 24 0 34s24 9 33 0l57-57c5 271 229 490 500 490 276 0 500-224 500-500z m-547-143c4 0 9 0 14 5l276 238c10 10 10 24 5 33-10 10-24 10-33 5l-262-228-167 109c-10 10-24 5-33-5-10-9-5-23 4-33l181-119c5-5 10-5 15-5z" horiz-adv-x="1095" />

<glyph glyph-name="hello" unicode="&#xe9bd;" d="M228-131c-5-10-14-14-23-14-5 0-5 0-10 0-74 23-148 102-162 176-5 14 4 24 18 28 14 5 23-4 28-18 14-61 75-126 135-145 14-4 19-13 14-27z m321 935c60-10 135-66 158-121 5-10 14-14 23-14 5 0 5 0 10 0 14 4 18 18 14 32-28 70-112 135-191 149-14 0-23-5-28-19s0-27 14-27z m260-661c-23-88-83-167-162-214-56-33-112-46-173-46-32 0-60 4-93 13-88 24-162 84-209 163l-158 270c-28 51-14 116 37 144 19 10 42 14 61 14l-61 107c-28 51-14 112 37 144 24 14 52 14 79 10 28-10 52-24 66-47l0-9c9 19 23 32 41 46 52 28 117 10 145-37l60-107c9 19 23 33 42 47 51 28 116 14 144-37l112-191c46-84 56-182 32-270z m-74 242l-112 191c-9 14-18 23-37 28-14 4-32 0-42-5-14-9-23-19-28-37-4-14 0-33 5-42l51-89c5-9 5-23-9-32-23-14-42-42-47-70-4-32 5-65 33-93 9-9 9-23 0-32-9-10-23-10-33 0-37 37-51 83-46 130 4 37 23 70 51 93l-144 251c-14 23-51 37-79 19-28-14-37-52-19-80l88-148c5-14 0-28-9-33-14-9-28-5-32 9l-135 233c-10 9-19 19-33 23-18 5-32 5-46-4-28-19-38-52-24-80l168-293c5-9 5-23-9-32-10-5-24-5-33 9l-60 112c-10 18-28 28-52 28-9 0-18 0-28-10-27-14-37-51-18-79l158-269c42-70 107-121 181-140 79-19 159-9 228 28s121 107 140 181c23 79 14 163-28 233z" horiz-adv-x="823" />

<glyph glyph-name="date" unicode="&#xe9be;" d="M841 809h-82v23c0 9-9 18-18 18-9 0-18-9-18-18v-18h-482v18c0 9-9 18-23 18s-18-9-18-18v-18h-82c-63-5-118-59-118-123v-718c0-69 55-123 118-123h718c69 0 119 54 119 118v723c4 64-50 118-114 118z m77-841c0-45-36-82-82-82h-718c-45 0-82 37-82 82v523h882v-523z m0 564h-877v159c0 45 36 82 82 82h82v-59c0-9 9-18 18-18s18 9 18 18v54h482v-59c0-9 9-18 18-18 9 0 18 9 18 18v59h82c45 0 82-36 82-82v-154z" horiz-adv-x="959" />

<glyph glyph-name="download" unicode="&#xe9bf;" d="M850 175v-150c0-95-80-175-175-175h-500c-95 0-175 80-175 175v150c0 15 10 25 25 25s25-10 25-25v-150c0-70 55-125 125-125h500c70 0 125 55 125 125v150c0 15 10 25 25 25s25-10 25-25z m-445-20c0 0 5-5 10-5 5 0 5 0 10 0s5 0 10 0c5 0 5 5 10 5l200 200c10 10 10 25 0 35s-25 10-35 0l-160-155v590c0 15-10 25-25 25s-25-10-25-25v-590l-155 160c-10 5-30 5-40 0s-5-30 0-40l200-200z" horiz-adv-x="850" />

<glyph glyph-name="filter" unicode="&#xe9c0;" d="M1156-150c-118 0-218 100-218 219s100 219 218 219 219-100 219-219-100-219-219-219z m0 375c-87 0-156-69-156-156s69-157 156-157 157 69 157 157-69 156-157 156z m-937 188c-119 0-219 100-219 218s100 219 219 219 219-100 219-219-100-218-219-218z m0 375c-88 0-156-69-156-157s68-156 156-156 156 69 156 156-69 157-156 157z m1156-157c0 19-12 32-31 32h-813c-18 0-31-13-31-32s13-31 31-31h813c19 0 31 13 31 31z m-500-562c0 19-12 31-31 31h-813c-18 0-31-12-31-31s13-31 31-31h813c19 0 31 12 31 31z" horiz-adv-x="1375" />

<glyph glyph-name="fire" unicode="&#xe9c1;" d="M447-150c-121 0-231 47-315 132-85 84-132 194-132 315s47 232 132 316c5 5 15 11 26 5 10 0 16-5 21-15 0 0 26-58 89-106 6 100 37 248 164 348 10 5 26 5 31 0 53-53 111-90 163-127 48-31 95-63 137-105 42-42 74-89 95-147 21-53 32-111 32-174 0-58-11-116-32-174-21-52-58-105-95-147-84-74-195-121-316-121z m-305 700c-58-68-89-158-89-253 0-105 42-205 115-279 74-73 174-115 279-115 106 0 206 42 279 115 37 37 64 79 85 127 21 47 31 100 31 152 0 53-10 106-31 153-21 47-48 90-85 126-36 37-79 69-126 95-47 32-100 69-153 116-115-100-131-247-131-332 0-10-5-15-11-21-10-5-21-5-26 0-74 32-116 84-137 116z m305-489c-15 0-36 5-52 10-32 5-58 21-79 42-37 37-53 79-53 132 0 16 11 26 27 26h84l47 142c5 11 16 16 26 16 32 0 58-5 85-21 26-16 47-37 68-58 16-26 26-53 32-84 5-32 0-63-16-90-11-26-32-52-53-73-21-21-52-32-79-37-10-5-26-5-37-5z m-131 157c5-26 16-47 37-68 15-16 31-26 52-32 27-5 48-5 69-5 21 5 42 16 58 27 15 15 31 31 36 52 11 21 11 42 11 63 0 21-11 42-21 58-11 21-32 37-47 48-16 5-27 10-43 15l-47-142c-5-10-16-16-26-16h-79z" horiz-adv-x="895" />

<glyph glyph-name="delete" unicode="&#xe9c2;" d="M573 23v486c0 14 9 23 23 23s22-9 22-23v-486c0-14-9-23-22-23s-23 9-23 23z m291 654c0-13-9-22-23-22h-82v-691c0-64-50-114-113-114h-428c-63 0-113 50-113 114v691h-82c-14 0-23 13-23 22s9 23 23 23h223v36c0 64 50 114 113 114h146c63 0 113-50 113-114v-36h223c14 0 23-9 23-23z m-573 23h282v36c0 37-32 69-68 69h-146c-36 0-68-32-68-69v-36z m427-45h-572v-691c0-37 31-69 68-69h432c36 0 68 32 68 69v691z m-286-655c14 0 23 9 23 23v486c0 14-9 23-23 23s-23-9-23-23v-486c0-14 9-23 23-23z m-164 0c14 0 23 9 23 23v486c0 14-9 23-23 23s-22-9-22-23v-486c0-14 9-23 22-23z" horiz-adv-x="864" />

<glyph glyph-name="code" unicode="&#xe9c3;" d="M1167-150h-667c-20 0-33 13-33 33s13 34 33 34h667c20 0 33-14 33-34s-13-33-33-33z m-1107 7l493 493-493 493c-13 7-40 7-53 0s-7-40 0-53l440-440-440-440c-14-13-14-33 0-47 6-13 20-13 26-13s20 0 27 7z" horiz-adv-x="1200" />

<glyph glyph-name="card" unicode="&#xe9c4;" d="M1324 850h-1177c-82 0-147-65-147-147v-706c0-82 65-147 147-147h1177c82 0 147 65 147 147v706c0 82-65 147-147 147z m-1177-59h1177c47 0 88-41 88-88v-559h-1353v559c0 47 41 88 88 88z m1177-882h-1177c-47 0-88 41-88 88v88h1353v-88c0-47-41-88-88-88z m-1089 676c0 18 12 30 30 30h176c18 0 30-12 30-30s-12-29-30-29h-176c-18 0-30 12-30 29z" horiz-adv-x="1471" />

<glyph glyph-name="time" unicode="&#xe9c5;" d="M500 286c-4 0-9 0-14 5l-186 127c-9 5-9 18-4 28 4 9 18 13 27 4l173-118 281 241c9 9 23 4 28 0 9-9 4-23-5-27l-291-250c0-5-4-10-9-10z m500 64c0 277-223 500-500 500-277 0-500-223-500-500 0-277 223-500 500-500 277 0 500 223 500 500z m-41 0c0-254-204-459-459-459s-459 205-459 459 205 459 459 459 459-204 459-459z" horiz-adv-x="1000" />

<glyph glyph-name="sync_new" unicode="&#xe9c6;" d="M500 850c-277 0-500-223-500-500s223-500 500-500 500 223 500 500-223 500-500 500z m0-955c-250 0-454 205-454 455 0 250 204 455 454 455 250 0 455-205 455-455 0-250-205-455-455-455z m-100 637l23 64c-109-37-182-132-182-246 0-123 82-227 200-254 14-5 18-14 18-28-4-9-13-18-23-18 0 0-4 0-4 0-136 32-236 155-236 296 0 131 86 245 209 286l-64 27c-14 5-18 18-14 32 5 14 19 18 28 14l136-50-50-137c0-9-9-13-18-13-5 0-5 0-9 0-9 4-18 18-14 27z m427-173c0-132-86-245-209-286l64-23c14-4 18-18 14-27-5-9-14-14-23-14-5 0-5 0-9 0l-137 50 50 137c5 13 19 18 28 13 13-4 18-18 13-27l-22-64c109 37 181 132 181 246 0 122-81 227-200 254-13 5-18 14-18 28 5 13 14 18 27 18 146-41 241-164 241-305z" horiz-adv-x="1000" />

<glyph glyph-name="close" unicode="&#xe9c7;" d="M967-150c-7 0-20 0-27 7l-440 446-440-440c-13-13-33-13-47 0s-13 34 0 47l440 440-446 440c-7 13-7 40 0 53s33 14 46 0l440-440 440 440c14 14 34 14 47 0s13-33 0-46l-433-447 440-440c13-13 13-33 0-47 0-13-14-13-20-13z" horiz-adv-x="1000" />

<glyph glyph-name="ok" unicode="&#xe9c8;" d="M438 121c-5 0-9 0-13 4l-229 167c-8 8-13 21-4 29 8 8 21 12 29 4l217-154 362 362c8 9 21 9 29 0 9-8 9-20 0-29l-375-375c-4-8-12-8-16-8z m562 229c0 275-225 500-500 500-275 0-500-225-500-500 0-275 225-500 500-500 275 0 500 225 500 500z m-42 0c0-254-204-458-458-458s-458 204-458 458 204 458 458 458 458-204 458-458z" horiz-adv-x="1000" />

<glyph glyph-name="exit" unicode="&#xe9c9;" d="M647-121c0-17-12-29-29-29h-471c-41 0-76 18-106 41s-41 65-41 106v706c0 41 18 76 41 106s65 41 106 41h471c17 0 29-12 29-29s-12-30-29-30h-471c-23 0-47-12-65-23s-23-41-23-65v-706c0-24 12-47 23-65s42-23 65-23h471c17 0 29-12 29-30z m588 459c0 6 0 18 0 24 0 6-6 6-6 12l-235 235c-12 12-29 12-41 0s-12-30 0-41l182-189h-694c-17 0-29-11-29-29s12-29 29-29h694l-182-183c-12-11-12-29 0-41 6-6 12-6 24-6s17 0 23 6l235 235c-6 0-6 0 0 6z" horiz-adv-x="1235" />

<glyph glyph-name="repeat" unicode="&#xe9ca;" d="M1091 379l-96-96c0 0-4-4-9-4-5 0-5 0-10 0s-5 0-9 0c-5 0-5 4-10 4l-95 96c-10 9-10 23 0 33s24 9 33 0l53-52c0 247-200 442-448 442-248 0-452-204-452-452s204-452 452-452c143 0 276 66 362 181 9 9 24 14 33 4 10-9 15-23 5-33-95-129-243-200-400-200-276 0-500 224-500 500 0 276 224 500 500 500 271 0 495-219 500-490l57 57c10 9 24 9 34 0s4-29 0-38z" horiz-adv-x="1095" />

<glyph glyph-name="support" unicode="&#xe9cb;" d="M1237 850h-681c-65 0-124-53-124-118v-403c0-65 53-118 124-118h468c6 0 12 0 12-6l94-89c12-6 18-12 36-12 6 0 12 0 17 6 18 6 30 24 30 42v59h30c35 0 65 12 88 35 18 24 30 54 30 83v403c0 65-53 118-124 118z m65-521c0-17-6-29-18-41-12-12-30-18-47-18h-48c-23 0-47-18-47-47v-48l-71 71c-12 12-35 24-53 24h-462c-35 0-65 30-65 59v403c0 35 30 59 65 59h681c35 0 65-30 65-59v-403z m-403-189c-17 0-29-12-29-30v-29c0-36-30-59-65-59h-468c-17 0-41-6-53-24l18-24 0 0-18 24 0 0-71-71v47c0 24-24 48-47 48h-42c-35 0-65 29-65 59v396c0 36 30 59 65 59h207c18 0 30 12 30 30 0 18-12 30-30 30h-207c-71 0-124-54-124-119v-396c0-65 53-119 124-119h30v-59c0-41 53-59 77-35l0 0-18 23 0 0 18-23 94 88 0 0c6 6 6 6 12 6h468c65 0 124 54 124 119v29c0 12-18 30-30 30z m-704-231l0 0 0 0 0 0z" horiz-adv-x="1361" />

<glyph glyph-name="burger_menu" unicode="&#xe9cc;" d="M1214 707h-1143c-42 0-71 29-71 72s29 71 71 71h1143c43 0 72-29 72-71s-29-72-72-72z m72-357c0 43-29 71-72 71h-1143c-42 0-71-28-71-71s29-71 71-71h1143c43 0 72 28 72 71z m0-429c0 43-29 72-72 72h-1143c-42 0-71-29-71-72s29-71 71-71h1143c43 0 72 29 72 71z" horiz-adv-x="1286" />

<glyph glyph-name="back_2" unicode="&#xe9cd;" d="M500-150c-7 0-20 0-27 7l-466 466c-7 14-7 40 0 54l466 466c14 7 40 7 54 0s13-33 0-46l-447-447 440-440c13-13 13-33 0-47 0-13-13-13-20-13z" horiz-adv-x="533" />

<glyph glyph-name="back" unicode="&#xe9ce;" d="M1400 350c0-20-13-33-33-33h-1254l407-407c13-13 13-33 0-47 0-13-13-13-20-13s-20 0-27 7l-466 466c0 0-7 7-7 14 0 6 0 20 0 26 0 7 7 7 7 14l466 466c14 7 40 7 54 0s13-33 0-46l-414-414h1254c20 0 33-13 33-33z" horiz-adv-x="1400" />

<glyph glyph-name="attach" unicode="&#xe9cf;" d="M211-150c-46 0-92 18-124 50-69 69-69 179 0 244l477 486c37 37 101 37 142 0 37-37 37-101 0-138l-454-458c-9-10-23-10-32 0-9 9-9 22 0 32l454 458c19 19 19 55 0 74-23 23-59 23-78 0l-477-482c-50-50-50-128 0-179 51-50 133-50 184 0l527 537c37 37 55 87 55 142 0 55-23 101-64 138-78 73-197 69-270-5l-510-523c-9-9-23-9-32 0-9 9-9 23 0 32l514 519c92 91 239 96 335 9 46-46 73-106 78-170 0-64-23-128-69-174l-537-537c-32-37-73-55-119-55z" horiz-adv-x="936" />

<glyph glyph-name="add" unicode="&#xe9d0;" d="M500 850c-274 0-500-226-500-500 0-274 226-500 500-500 274 0 500 226 500 500 0 274-226 500-500 500z m0-957c-252 0-456 205-456 457 0 252 204 457 456 457 252 0 457-205 457-457 0-252-205-457-457-457z m252 457c0-13-8-22-22-22h-208v-208c0-13-9-22-22-22s-22 13-22 22v208h-208c-13 0-22 9-22 22s13 22 22 22h208v208c0 14 9 22 22 22s22-13 22-22v-208h208c9 0 22-9 22-22z" horiz-adv-x="1000" />

<glyph glyph-name="search" unicode="&#xe9d1;" d="M647 427c-15 0-25 10-25 25 0 124-100 224-224 224-15 0-25 10-25 25s10 25 25 25c149 0 274-125 274-274 0-15-10-25-25-25z m353-502c0-20-10-40-20-55s-35-20-55-20c0 0 0 0 0 0-19 0-39 10-54 20l-244 244c-65-45-144-70-229-70-219 0-398 179-398 403s179 403 403 403 403-179 403-403c0-85-25-164-70-229l244-244c10-10 20-30 20-49z m-597 169c194 0 353 159 353 353 0 194-159 353-353 353-194 0-353-159-353-353 0-194 159-353 353-353z m547-169c0 5-5 15-5 19l-238 239c-10-15-25-24-35-34l238-239c5-5 10-5 20-5 5 0 15 5 20 5s0 10 0 15z" horiz-adv-x="1000" />

<glyph glyph-name="qr_2" unicode="&#xe9d2;" d="M0 379h471v471h-471v-471z m59 412h353v-353h-353v353z m59-59h235v-235h-235v235z m0-529h235v-235h-235v235z m764 294h-235v235h235v-235z m-882-647h471v471h-471v-471z m59 412h353v-353h-353v353z m470 588v-471h471v471h-471z m412-412h-353v353h353v-353z m-353-411v-118h-59v118 58h177v-58h-118z m236 117v-59h-59v59h59z m58-117h-58v58h58v-58z m59 58h-59v59h59v-59z m-294 59h-118v59 59 59h59v-59h59v59h59v-59-59h-59v-59z m177 59h-59v59 59h176v-59h-117v-59z m-118-235h59v-118h-59-118v59h118v59z m176 59h118v-59h-59v-59-59h-117v59 59h58v59z m-58 0v-59h-59v59h59z" horiz-adv-x="1000" />

<glyph glyph-name="qr_1" unicode="&#xe9d3;" d="M665 74h-335c-62 0-112 50-112 111v335c0 62 50 112 112 112h335c61 0 112-50 112-112v-335c0-61-51-111-112-111z m-335 502c-34 0-56-22-56-56v-335c0-33 22-56 56-56h335c33 0 56 23 56 56v335c0 34-23 56-56 56h-335z m363-670h173c45 0 84 39 84 84v173h56v-173c0-79-62-140-140-140h-173v56z m-637 251v-173c0-45 39-84 84-84h173v-56h-173c-78 0-140 62-140 140v173h56z m257 637h-173c-45 0-84-39-84-84v-173h-56v173c0 79 62 140 140 140h173v-56z m380 0h173c45 0 84-39 84-84v-173h56v173c0 79-62 140-140 140h-173v-56z" horiz-adv-x="1000" />

<glyph glyph-name="profile_settings" unicode="&#xe9d4;" d="M405 400c125 0 225 100 225 225s-105 225-225 225-225-100-225-225 100-225 225-225z m0 400c95 0 175-80 175-175s-80-175-175-175-175 80-175 175 75 175 175 175z m-150-925c0-15-10-25-25-25h-70c-100 0-175 90-160 185 30 180 185 315 365 315h135c15 0 25-10 25-25s-10-25-20-25h-140c-160 0-290-115-315-270-10-70 45-130 110-130h65c15 0 30-10 30-25z m595 495c-40 40-105 40-140 0v0l-335-335c-5-5-5-5-5-10l-35-140c0-10 0-20 5-25 0-5 5-10 15-10 0 0 5 0 5 0l140 35c5 0 10 5 10 5l335 335c20 20 30 45 30 70s-5 55-25 75z m-35-105l-330-330-95-25 25 95 330 330c20 20 50 20 70 0 10-10 15-20 15-35s-5-25-15-35z" horiz-adv-x="880" />

<glyph glyph-name="job" unicode="&#xe9d5;" d="M1114 764h-1028c-46 0-86-40-86-85v-229c0-46 23-86 57-114h0v-400c0-46 40-86 86-86h914c46 0 86 40 86 86v400h0c34 28 57 68 57 114v229c0 45-40 85-86 85z m-28-828c0-17-12-29-29-29h-914c-17 0-29 12-29 29v377c12 0 17-6 29-6h143v-57h171v57h286v-57h171v57h143c12 0 17 0 29 6v-377z m-743 371v57h57v-57h-57z m457 0v57h57v-57h-57z m343 143c0-46-40-86-86-86h-143v57h-171v-57h-286v57h-171v-57h-143c-46 0-86 40-86 86v229c0 17 12 28 29 28h1028c17 0 29-11 29-28v-229z m-714 371c0 18 11 29 28 29h286c17 0 28-11 28-29s-11-28-28-28h-286c-17 0-28 11-28 28z" horiz-adv-x="1200" />

<glyph glyph-name="cook_1" unicode="&#xe9d6;" d="M924 688c-48 48-114 76-186 76-9 0-19 0-33-4-53 57-129 90-205 90-76 0-152-33-205-90-14 0-24 4-33 4-143 0-262-119-262-262 0-95 48-181 129-228l0-315c0-28 9-57 33-80 19-20 48-34 81-34h514c62 0 114 53 114 114v315c81 47 129 133 129 224 0 71-29 138-76 190z m-91-376l-14-5v-343c0-33-28-66-67-66h-509c-19 0-33 4-48 19-14 14-19 28-19 47l0 72h481c14 0 24 9 24 24s-10 23-24 23h-481l0 224-14 5c-71 33-114 109-114 190 0 119 95 215 214 215 9 0 24 0 38-5l14-5 10 10c43 57 109 85 176 85 67 0 133-28 181-81l10-14 14 5c14 5 28 5 38 5 57 0 109-24 152-62 34-43 57-95 57-153 0-81-42-152-119-190z" horiz-adv-x="1000" />

<glyph glyph-name="agreement" unicode="&#xe9d7;" d="M774-150h-653c-31 0-63 10-84 37-21 21-37 52-37 84v653c0 31 11 63 37 84 21 26 53 37 84 37h326c16 0 27-11 27-27s-11-26-27-26h-326c-21 0-37-5-47-16-16-15-21-31-21-52v-653c0-16 5-37 21-47 10-11 26-21 47-21h653c16 0 37 5 47 21 11 10 21 31 21 47v326c0 16 11 27 26 27s27-11 27-27v-326c0-32-11-63-37-84-21-21-53-37-84-37z m-479 263l195 53c5 0 10 5 10 5l458 458c26 26 42 58 42 95 0 31-16 68-37 89-47 48-137 48-184 0l-458-458c-5-5-5-10-10-15l-48-195c0-11 0-21 5-27 6 0 16-5 22-5 0 0 5 0 5 0z m521 663c26 27 79 27 110 0 11-15 21-31 21-52s-10-42-21-53l-452-453-142-36 31 142 453 452z" horiz-adv-x="1000" />

<glyph glyph-name="agreement-2" unicode="&#xe9d8;" d="M280-150h-119c-92 0-161 73-161 165v670c0 92 73 165 161 165h431c87 0 160-73 160-165v-220c0-14-9-23-23-23s-23 9-23 23v220c0 64-50 119-114 119h-431c-65 0-115-55-115-119v-665c0-65 50-120 115-120h119c14 0 23-9 23-23s-9-27-23-27z m348 752c0 14-9 23-22 23h-436c-14 0-23-9-23-23s9-23 23-23h436c13 0 22 10 22 23z m-151-169c0 13-9 23-23 23h-293c-14 0-23-10-23-23s9-23 23-23h289c13 0 27 13 27 23z m-128-166c0 14-10 23-23 23h-165c-14 0-23-9-23-23s9-22 23-22h165c13 0 23 9 23 22z m385-18c0 69-55 124-124 124s-124-55-124-124 55-124 124-124 124 55 124 124z m-46 0c0-41-32-78-78-78s-78 37-78 78 32 78 78 78 78-32 78-78z m110-367c19 18 28 46 23 73-14 97-96 166-193 166h-32c-96 0-179-74-192-166l0 0c-5-27 4-55 23-73 18-18 41-32 68-32h239c23 0 46 9 64 32z m-353 64c9 74 73 129 147 129h32c73 0 138-55 147-129 0-13 0-27-9-36s-23-14-37-14h-239c-13 0-27 4-36 14-5 13-5 23-5 36l0 0z" horiz-adv-x="821" />

<glyph glyph-name="www-1" unicode="&#xe9d9;" d="M500 850c-276 0-500-224-500-500 0-276 224-500 500-500 276 0 500 224 500 500 0 276-224 500-500 500z m419-333h-186c-33 100-90 195-166 281 162-24 295-134 352-281z m-205-167c0-57-14-114-28-167h-162v286h176c10-38 14-76 14-119z m-428 0c0 38 5 81 14 119h176v-286h-162c-14 53-28 110-28 167z m190 167h-162c34 90 86 176 162 252v-252z m0-381v-205c-62 62-109 129-143 205h143z m48 0h143c-34-76-81-143-143-205v205z m0 381v252c76-76 128-162 162-252h-162z m-91 281c-76-86-133-181-166-281h-186c57 147 190 257 352 281z m-366-329c0 0 4 0 4 0h181c-9-38-14-81-14-119 0-57 10-114 29-167h-186c-24 53-33 110-33 167 0 43 4 81 19 119z m33-333h181c33-86 86-162 152-234-142 19-266 110-333 234z m467-234c66 72 119 148 152 234h181c-67-124-190-215-333-234z m352 281h-186c19 53 29 110 29 167 0 38-5 81-14 119h181c4 0 4 0 4 0 10-38 19-81 19-119 0-57-9-114-33-167z" horiz-adv-x="1000" />

<glyph glyph-name="security_pay_2" unicode="&#xe9da;" d="M948 850h-843c-58 0-105-47-105-105v-539c0-58 47-105 105-105h429v-136c0-63 52-115 115-115h173c63 0 115 52 115 115v136h11c57 0 104 47 104 105v539c0 58-47 105-104 105z m-843-52h843c26 0 52-21 52-53v-62h-948v62c0 32 21 53 53 53z m895-241h-948v73h948v-73z m-115-592c0-37-26-63-63-63h-173c-36 0-63 32-63 63l0 231c0 0 0 0 0 0l299 0v-231z m-63 283h-183v63c0 42 31 73 73 73h37c42 0 73-31 73-73v-63z m126-94h-11v42c0 31-26 52-52 52h-5v63c0 68-58 125-126 125h-37c-68 0-125-57-125-125v-63h-6c-15 0-31-5-41-21-11-10-11-26-11-37v-42h-429c-26 0-53 21-53 53v304h948v-299c0-26-26-52-52-52z m-697 94c0-16-10-26-26-26h-89c-16 0-26 10-26 26s10 26 26 26h89c16 0 26-10 26-26z m220 0c0-11-10-26-26-26h-110c-16 0-26 10-26 26s10 26 26 26h110c16 0 26-10 26-26z m262-110c-26 0-52-21-52-52 0-16 10-32 26-42v-53c0-15 10-26 26-26s26 11 26 26v53c16 10 26 26 26 42 0 31-26 52-52 52z m0-31c0 0 0 0 0 0l0 0 0 0z" horiz-adv-x="1052" />

<glyph glyph-name="contacts" unicode="&#xe9db;" d="M800-150c-124 0-324 95-514 286-119 119-205 247-253 366-43 110-43 205 0 248 5 5 10 10 19 14 34 43 81 91 139 86 42 0 80-29 119-76 109-133 71-191 4-257l-14-10c-5-5-29-43 143-214 171-172 209-143 214-143l10 10c66 66 124 104 257-5 47-38 76-76 76-119 5-57-43-105-86-143-4-5-14-14-19-19-19-15-52-24-95-24z m-614 952c-34 0-72-38-100-66-5-10-15-15-19-19-24-24-34-91 9-200 43-115 129-238 243-353 257-257 495-300 548-252 4 5 14 14 19 19 33 33 71 67 66 105 0 24-19 52-57 85-109 91-138 62-195 5l-9-9c-48-48-134-5-281 143l0 0c-143 142-191 233-143 281l9 9c57 57 86 81-5 195-28 38-57 57-85 57 0 0 0 0 0 0z" horiz-adv-x="1000" />

<glyph glyph-name="catering" unicode="&#xe9dc;" d="M64 376c12 0 20 8 24 16 20 191 203 343 414 343 0 0 0 0 0 0 0 0 0 0 0 0 203 0 375-148 402-347 0-12 8-16 20-16 0 0 0 0 4 0 12 0 20 12 16 24-28 199-191 350-390 374 4 8 4 16 4 24 0 32-24 56-56 56-32 0-56-24-56-56 0-8 0-12 4-20-211-24-382-179-406-374 0-12 8-20 20-24z m418 418c0 8 8 16 16 16s20-8 20-16c0-8-8-16-16-16 0 0 0 0 0 0 0 0 0 0 0 0-12 0-20 4-20 16z m263-526c12-8 20-20 20-35 0-16-4-32-20-44l-127-164-124-111c-16-16-16-24-16-36 0-4 0-8 0-12 0-12-8-16-20-16 0 0 0 0-4 0-12 0-20 12-16 24 0 4 0 4 0 8 0 16 0 36 28 60l120 111 131 160c4 8 8 12 8 16 0 4 0 4-4 8-8 3-16 0-20-4l-87-96-72-64c-8-8-20-8-28 0-4 4-4 8-4 8-4-8-8-20-12-28-4-12-16-16-28-12-12 4-16 16-12 28 8 16 12 28 20 40 4 4 4 8 8 12 8 20 20 44 28 64 8 16 12 28 16 36 8 16 4 19 4 19-8 4-16 8-40-35-24-48-96-176-96-176l0 0c-4-12-11-16-15-16-4 0-24-4-32-32-4-8-12-16-20-16 0 0-4 0-4 0-12 4-16 12-16 24 12 40 36 56 56 60 4 8 8 16 16 28l-36 16c-4 4-8 8-12 12-4 28-20 84-32 108-8 16-20 24-32 27-8 0-12 0-20-3-4-8 12-40 16-56 20-44 20-76 12-124 0-8-4-16-8-24-8-12-12-24-16-44-12-51 12-115 12-115 4-12 0-20-12-28-4 0-4 0-8 0-8 0-16 4-20 12 0 4-32 72-16 139 4 28 16 44 24 56 0 4 4 8 4 8 8 44 4 68-8 100-16 40-36 83-4 103 16 8 32 12 48 8 20-4 40-20 56-47 16-28 32-80 36-104l27-12c20 40 44 80 56 104 16 27 40 75 84 55 16-4 24-16 24-24 8-19 0-39-4-51-4-8-12-24-16-36-8-20-20-40-28-60l64 60 83 95c36 28 64 32 88 16z m251 40c0-12-8-20-20-20h-956c-12 0-20 8-20 20s8 20 20 20h956c12 0 20-8 20-20z" horiz-adv-x="996" />

<glyph glyph-name="social_whatsapp" unicode="&#xe9dd;" d="M0-150l73 276c-36 73-63 156-63 234 6 271 224 490 495 490 130 0 255-52 349-146 89-88 141-213 146-344 0-270-219-494-495-494-78 0-156 15-224 52l-281-68z m287 130l10-5c68-37 135-52 208-52 245 0 443 198 443 437-5 120-47 230-130 308-84 83-193 130-313 130-239 0-437-198-437-438 0-72 21-151 57-218l5-11-57-208 214 57z m338 130c-16 0-36 0-52 6-10 5-16 5-21 5-15 5-31 10-52 21-109 47-182 146-208 182-5 5-52 68-52 135 0 63 26 94 41 110l6 5c15 21 41 21 52 21h26c15 0 36 0 52-37 0 0 5-15 10-26 5-20 16-41 21-47l0-5c5-15 5-31 0-41 0-6-5-16-16-26-5-6-5-11-10-11 0-5-5-5-5-10 10-16 26-42 57-68 36-31 63-42 78-52l5-5c11 10 26 31 32 36 10 21 31 31 57 21 10-5 73-36 83-42 11-5 21-10 26-15l5-5 0-6c6-21 6-47-5-78v0c-15-36-67-68-99-73-10 5-21 5-31 5z m-260 438l-21 0c-11 0-11 0-11-5l-10-5c-10-16-26-32-26-73 0-47 36-94 42-105l5-5c21-26 88-125 187-166 21-11 37-16 47-21 5 0 11-5 16-5 15-6 36-6 57 0 16 0 52 26 57 36 6 16 6 26 6 36 0 0-6 6-11 6-10 5-62 31-73 36-10-15-31-42-36-47-16-15-37-21-57-10l-6 5c-15 5-52 26-93 57-37 42-63 78-73 94-11 16-6 37 10 52l5 5c5 6 11 11 11 16 5 5 5 5 5 10-5 6-11 21-21 53 0 10-5 26-10 36 0-5 0 0 0 0z m47-146c0 0 0 0 0 0 0 0 0 0 0 0z" horiz-adv-x="1000" />

<glyph glyph-name="social_whatsapp-1" unicode="&#xe9de;" d="M0-150l73 276c-36 73-63 156-63 234 6 271 224 490 495 490 130 0 255-52 349-146 89-88 141-213 146-344 0-270-219-494-495-494-78 0-156 15-224 52l-281-68z m287 130l10-5c68-37 135-52 208-52 245 0 443 198 443 437-5 120-47 230-130 308-84 83-193 130-313 130-239 0-437-198-437-438 0-72 21-151 57-218l5-11-57-208 214 57z m338 130c-16 0-36 0-52 6-10 5-16 5-21 5-15 5-31 10-52 21-109 47-182 146-208 182-5 5-52 68-52 135 0 63 26 94 41 110l6 5c15 21 41 21 52 21h26c15 0 36 0 52-37 0 0 5-15 10-26 5-20 16-41 21-47l0-5c5-15 5-31 0-41 0-6-5-16-16-26-5-6-5-11-10-11 0-5-5-5-5-10 10-16 26-42 57-68 36-31 63-42 78-52l5-5c11 10 26 31 32 36 10 21 31 31 57 21 10-5 73-36 83-42 11-5 21-10 26-15l5-5 0-6c6-21 6-47-5-78v0c-15-36-67-68-99-73-10 5-21 5-31 5z m-260 438l-21 0c-11 0-11 0-11-5l-10-5c-10-16-26-32-26-73 0-47 36-94 42-105l5-5c21-26 88-125 187-166 21-11 37-16 47-21 5 0 11-5 16-5 15-6 36-6 57 0 16 0 52 26 57 36 6 16 6 26 6 36 0 0-6 6-11 6-10 5-62 31-73 36-10-15-31-42-36-47-16-15-37-21-57-10l-6 5c-15 5-52 26-93 57-37 42-63 78-73 94-11 16-6 37 10 52l5 5c5 6 11 11 11 16 5 5 5 5 5 10-5 6-11 21-21 53 0 10-5 26-10 36 0-5 0 0 0 0z m47-146c0 0 0 0 0 0 0 0 0 0 0 0z" horiz-adv-x="1000" />

<glyph glyph-name="social_viber" unicode="&#xe9df;" d="M271-150c-4 0-14 0-19 5-33 9-42 47-38 71l0 48 0 33c-219 67-214 310-214 429 5 143 33 243 100 309 157 148 586 134 714 5 91-81 124-252 96-476-29-229-181-267-234-281-5 0-9 0-9-5-24-9-134-33-272-24l-4-9c-67-76-91-105-120-105z m186 952c-128 0-257-28-324-90-57-57-81-148-85-276 0-119-5-338 195-395l19-5 0-67 0-48c0-9 5-23 5-23 9-5 24 9 90 90l24 29 14 0c153-15 262 19 267 19 5 0 9 0 14 5 48 14 176 47 195 242l0 0c24 210-4 367-80 438-67 48-200 81-334 81z m114-690c-9 0-14 0-23 5l-10 4c-47 15-128 62-181 105-105 86-147 191-171 248-5 9-10 19-15 24-19 57 29 104 72 128l5 5c23 10 52 5 66-14 5-5 5-10 10-15 9-14 28-33 52-76 19-33 5-66-14-81l-19-14c0 0 0-5 0-5 0 0 28-109 133-133 0 0 0 0 0 0l19 24c15 19 48 33 81 14l0 0c24-14 62-38 86-67 19-14 24-43 14-66v0l-5-5c-23-48-61-81-100-81z m-4 48c19 0 43 23 57 47l0 0c5 10 0 14 0 14-24 24-57 48-81 58-10 4-14 0-19 0l-19-24c-14-19-43-19-48-19-124 38-162 171-162 181 0 4-4 33 19 52l19 14c0 0 5 10 0 19-19 39-38 58-47 72-5 5-5 9-10 14 0 0-5 5-14 0l-5 0c-24-19-47-47-43-71 0-5 5-15 10-29 24-52 62-152 157-233 57-48 143-91 176-100l10 5z m-34 266c15 0 24 10 24 24 0 33-28 76-86 86-9 5-23-5-28-15 0-14 9-28 19-28 38-10 48-29 48-43 0-14 14-24 23-24 0 0 0 0 0 0z m110-5c14 0 24 15 19 29-10 67-67 148-181 176-14 0-24-5-29-19-4-14 5-24 15-28 90-24 143-91 147-138 5-10 15-20 29-20 0 0 0 0 0 0z m105 5c14 0 23 15 19 29-15 100-110 224-286 276-14 0-29-10-29-24-4-9 5-24 15-28 157-43 243-148 252-234 5-14 14-19 29-19-5 0 0 0 0 0z" horiz-adv-x="919" />

<glyph glyph-name="social_tik_tok" unicode="&#xe9e0;" d="M567-150c-178 0-323 139-323 317v316c-61-50-138-77-216-72-17 0-28 17-28 28v161c0 11 11 22 28 28 111 5 200 94 211 200 0 11 17 22 28 22h139c16 0 27-11 27-28l0-661c0-61 61-117 128-117 67 0 122 56 122 117s-55 117-122 117c-5 0-5 0-11 0 0 0-6 0-6 0-5 0-16 0-22 5 0 11-5 17-5 28v139c0 17 11 28 27 28 12 0 17 0 23 0 177 0 322-139 322-317 0-172-145-311-322-311z m-300 733c0 0 5 0 5 0 11-5 22-16 22-27v-389c0-145 123-261 267-261 150 0 267 116 267 261 0 139-117 255-261 261v-84c94-5 166-83 166-172 0-94-77-172-177-172-100 0-184 78-184 172l6 622h-89c-22-116-117-205-233-222v-105c77 0 150 39 188 100 6 11 17 16 23 16z" horiz-adv-x="889" />

<glyph glyph-name="social_telegram" unicode="&#xe9e1;" d="M1020-150c-53 0-100 33-147 60-13 7-26 13-33 27-53 33-93 53-127 80-33 20-73 46-120 73-26 20-66 47-73 87 0 46 33 73 67 106 6 7 13 14 26 20 7 7 27 20 54 47 33 27 100 87 153 133-67-40-180-113-353-220-54-33-100-46-140-46-47 0-134 26-180 40l-27 6c-60 20-127 40-120 100 7 34 33 60 100 87 327 133 540 220 647 260 320 120 380 140 426 140 7 0 40 0 67-20 20-13 20-40 27-47 0-6 6-33 0-46-20-167-94-580-127-747-20-107-67-127-107-133 0-7-6-7-13-7z m-100 767c13 0 20 0 33-14 20-13 20-40 14-53-7-20-20-40-267-253-27-20-47-40-47-40-6-7-13-14-20-20-20-20-46-47-46-54 0 0 0-13 40-40 46-26 80-53 120-73 40-27 80-53 126-80 14-7 27-13 40-27 40-26 80-53 114-46 20 0 33 33 46 80 34 173 107 573 127 740 0 6 0 26 0 33 0 7 0 7 0 7-7 6-20 6-27 6 0 0 0 0 0 0-40 0-113-26-400-140-106-40-320-126-646-260l0 0c-54-20-60-33-60-33 6 0 46-13 73-20l27-7c73-20 133-33 160-40 26 0 60 14 100 34 453 286 466 293 480 293 0 7 6 7 13 7z" horiz-adv-x="1267" />

<glyph glyph-name="social_spotify" unicode="&#xe9e2;" d="M1169-150c-8 0-24 0-32 8-161 161-508 266-927 153-24-8-41 8-49 33s8 40 33 48c451 121 830 0 1008-169 16-17 16-41 0-57-8-16-25-16-33-16z m194 339c16 16 8 40-8 56-48 32-516 363-1242 162-24 0-40-25-32-49s24-32 48-32c694 185 1129-121 1178-153 8-8 16-8 24-8 16 8 24 8 32 24z m161 314c16 24 8 49-8 57-193 161-822 419-1484 209-24 0-40-24-32-48 8-24 32-32 48-24 638 201 1226-49 1412-194 8-8 16-8 24-8 16 0 32 0 40 8z" horiz-adv-x="1532" />

<glyph glyph-name="social_share_2" unicode="&#xe9e3;" d="M810 350v-381c0-33-15-62-34-86s-52-33-85-33h-572c-33 0-62 14-86 33s-33 53-33 86v381c0 14 10 24 24 24s24-10 24-24v-381c0-19 9-38 19-52s33-19 52-19h572c19 0 38 9 52 19s19 33 19 52v381c0 14 9 24 24 24s24-10 24-24z m-577 267l148 152v-562c0-14 10-24 24-24s24 10 24 24v562l147-148c5-9 15-9 19-9s15 0 19 5c10 9 10 24 0 33l-190 191c0 0-5 4-10 4-4 5-14 5-19 5-4 0-4-5-9-5l-191-190c-4-10-4-29 0-38s29-5 38 0z" horiz-adv-x="810" />

<glyph glyph-name="social_ok" unicode="&#xe9e4;" d="M119-150c0 0-5 0 0 0-27 0-54 11-70 32-33 33-33 81-6 119 11 17 27 27 38 38 11 11 22 22 33 33 10 10 21 21 32 32-38 11-76 27-103 49-43 32-54 86-21 129 10 17 27 33 54 38 27 6 54 0 75-10 49-28 92-44 157-38 43 5 81 16 114 32 10 16 32 27 54 27 21 0 54-11 70-27 16-22 27-43 27-70 0-27-11-49-27-65-5-5-11-11-22-16-32-22-59-33-92-43l33-33c22-22 43-43 65-65 32-32 38-81 11-119-27-43-81-54-125-27-11 6-16 11-27 22-32 32-65 65-97 97l-43-43c-22-22-44-43-65-65-16-16-43-27-65-27z m-22 422c-5 0-5 0-10 0-11-6-17-11-22-17-11-16-11-43 11-59 32-22 81-38 124-54l38-11-22-32c-16-17-43-44-65-65-10-11-21-22-32-33-11-11-22-21-32-32-11-11-11-33 5-49 11-11 22-16 32-16 11 0 22 5 27 11 22 21 44 43 65 65l44 48c0 6 5 11 10 17l17 16 16-16c38-38 81-76 119-119 5-6 10-11 16-17 16-10 43-5 54 11 11 16 11 38-5 54-22 22-44 44-65 65l-49 43c5 11 0 17-11 22l-38 33 54 10c54 11 76 22 125 49 5 0 5 5 11 5 10 11 10 17 10 27 0 11-5 22-10 33-6 5-22 11-27 11-11 0-22-6-33-17l0 0c-38-21-81-37-135-43-81-5-135 11-189 43-16 17-27 17-33 17z m190 65c-27 0-60 5-87 16-65 21-113 65-146 129-27 60-32 130-11 195 49 135 195 205 330 157l0 0c65-22 119-70 146-130 27-59 32-130 11-194-33-109-135-173-243-173z m0 459c-87 0-163-54-195-135-16-54-16-108 11-157 21-49 65-86 119-103 102-37 221 17 259 125 16 48 16 108-11 156-21 49-65 82-113 103l0 0c-22 6-49 11-70 11z m0-324c-11 0-27 0-38 5-65 22-98 92-76 157 22 65 92 97 157 76l0 0c65-22 97-92 75-157-21-54-64-81-118-81z m0 189c-27 0-55-16-65-49-11-32 5-70 43-86 38-11 76 5 86 43 11 38-5 76-43 86l0 0c-5 6-11 6-21 6z" horiz-adv-x="573" />

<glyph glyph-name="social_like" unicode="&#xe9e5;" d="M605-150c-5 0-10 0-15 5l-490 458c-63 63-100 142-100 227 0 84 37 163 100 221 58 57 142 89 232 89s168-32 231-89l42-37 42 37c32 31 69 52 106 68 79 32 173 32 252 0 42-16 79-37 106-68 31-32 52-64 73-100 16-43 27-79 27-121 0-43-11-85-27-122-16-36-42-73-73-100l-490-458c-5-10-10-10-16-10z m-273 947c-74 0-148-26-200-79-53-47-79-110-79-178 0-69 26-132 79-185l473-442 474 442c26 27 47 53 58 85 16 31 21 63 21 100 0 31-5 68-21 100-16 31-37 57-58 84-26 21-58 42-95 52-68 27-147 27-216 0-31-10-57-31-84-58l-58-52c-10-11-26-11-36 0l-58 52c-53 53-127 79-200 79z" horiz-adv-x="1211" />

<glyph glyph-name="social_fb" unicode="&#xe9e6;" d="M357-150h-190c-15 0-24 9-24 24v357h-119c-14 0-24 10-24 24v190c0 15 10 24 24 24h119v119c0 72 28 138 76 186 48 47 114 76 186 76h143c14 0 23-9 23-24v-190c0-15-9-24-23-24h-143c-5 0-14-5-19-5 0-5-5-14-5-19v-119h167c9 0 14-5 19-9 4-5 4-15 4-19l-47-191c-5-9-14-19-24-19h-119v-357c0-15-10-24-24-24z m-166 48h142v357c0 14 10 24 24 24h124l38 142h-162c-14 0-24 10-24 24v143c0 19 10 38 19 53s34 19 53 19h119v142h-119c-57 0-110-23-153-61-38-43-61-96-61-153v-143c0-14-10-24-24-24h-119v-142h119c14 0 24-10 24-24v-357z" horiz-adv-x="571" />

<glyph glyph-name="checklist" unicode="&#xe9e7;" d="M338-145h-178c-91 0-160 73-160 164v667c0 91 73 164 160 164h429c87 0 160-73 160-164v-334c0-13-9-22-23-22s-23 9-23 22v334c0 64-50 118-114 118h-429c-64 0-114-54-114-118v-662c0-64 50-119 114-119h178c14 0 23-9 23-23s-9-27-23-27z m274 771c0 14-9 23-23 23h-457c-13 0-22-9-22-23s9-23 22-23h457c14 0 23 10 23 23z m0-182c0 13-9 22-23 22h-457c-13 0-22-9-22-22s9-23 22-23h457c14 0 23 9 23 23z m-274-183c0 14-9 23-23 23h-183c-13 0-22-9-22-23s9-23 22-23h183c14 0 23 9 23 23z m-46-183c0 14-9 23-23 23h-137c-13 0-22-9-22-23s9-22 22-22h137c14 0 23 9 23 22z m297-128c5 0 14 5 14 10l114 127c9 10 9 23 0 32-9 10-23 10-32 0l-100-114-51 46c-9 9-23 9-32 0-9-9-9-23 0-32l69-59c9-10 14-10 18-10 0 0 0 0 0 0z m228 106c0 114-91 205-205 205s-206-91-206-205 92-206 206-206 205 91 205 206z m-45 0c0-87-73-160-160-160s-160 73-160 160 73 159 160 159 160-73 160-159z" horiz-adv-x="817" />

<glyph glyph-name="send_mail" unicode="&#xe9e8;" d="M1281 850h-1125c-87 0-156-69-156-156v-688c0-87 69-156 156-156h1125c88 0 157 69 157 156v688c0 87-69 156-157 156z m94-844c0-50-44-94-94-94h-1125c-50 0-93 44-93 94v688c0 50 43 94 93 94h1125c50 0 94-44 94-94v-688z m-131 575c6-12 0-31-13-43l-500-250c-6-7-18-7-25 0l-500 250c-18 12-25 31-12 43 6 19 25 25 37 13l488-244 487 244c13 12 32 6 38-13z" horiz-adv-x="1438" />

<glyph glyph-name="mail_open" unicode="&#xe9e9;" d="M1223 526c-5 0-5 0 0 0-10 42-37 79-74 95l-479 218c-37 16-74 16-111 0l-479-218c-43-16-69-53-75-90 0 0 0 0 0 0 0-5 0-11 0-16 0-5 0-5 0-11v-516c0-74 59-133 133-133h958c74 0 133 59 133 133v511c0 5 0 5 0 11-6 5-6 10-6 16z m-1122 47l479 219c10 5 21 5 32 5s21 0 32-5l478-219c22-10 32-26 43-42l-553-250-553 250c10 16 21 32 42 42z m989-670h-957c-43 0-80 37-80 80v489l548-250c5-5 16-5 21 0l548 250v-489c0-43-37-80-80-80z" horiz-adv-x="1223" />

<glyph glyph-name="invitation_2" unicode="&#xe9ea;" d="M403 397c127 0 227 99 227 227s-105 226-227 226-226-99-226-226 99-227 226-227z m0 398c94 0 172-78 172-171s-78-172-172-172-171 78-171 172 77 171 171 171z m39-442h-77c-183 0-337-133-365-315-6-50 6-94 39-133 33-38 77-55 121-55h481c50 0 94 22 121 55 34 39 45 83 39 133-22 182-182 315-359 315z m282-409c-22-22-50-39-83-39h-475c-33 0-61 11-83 39s-28 55-28 88c22 155 155 266 310 266h77c155 0 287-116 309-266 0-33-5-61-27-88z m453 414c0-16-11-27-28-27h-138v-138c0-17-11-28-28-28s-27 11-27 28v138h-138c-17 0-28 11-28 27s11 28 28 28h138v138c0 17 11 28 27 28s28-11 28-28v-138h138c11 0 28-11 28-28z" horiz-adv-x="1177" />

<glyph glyph-name="commets_2" unicode="&#xe9eb;" d="M26-150c-5 0-5 0-10 0-11 5-16 16-16 26v842c0 37 16 69 37 95s58 37 95 37h736c37 0 69-16 95-37s37-58 37-95v-526c0-37-16-68-37-95s-58-36-95-36h-621l-205-206c0 0-10-5-16-5z m106 947c-21 0-42-10-58-21s-21-36-21-58v-779l163 164c5 5 16 10 21 10h631c22 0 43 11 58 21s21 37 21 58v526c0 22-10 43-21 58s-36 21-58 21h-736z" horiz-adv-x="1000" />

<glyph glyph-name="birthday" unicode="&#xe9ec;" d="M667 822c0 17 11 28 27 28h0c17 0 28-11 28-28s-11-28-28-28-27 12-27 28z m-139-28c16 0 28 12 28 28s-12 28-28 28h0c-17 0-28-11-28-28s11-28 28-28z m528-527v-389c0-17-12-28-28-28h-1000c-17 0-28 11-28 28v389c0 39 17 72 39 100s61 39 100 39h28v83c0 39 16 72 39 100s61 39 100 39h27v83c0 17 11 28 28 28s28-11 28-28v-83h111v83c0 17 11 28 28 28s28-11 28-28v-83h111v83c0 17 11 28 27 28s28-11 28-28v-83h28c39 0 72-17 100-39s39-61 39-100v-83h28c39 0 72-17 100-39s39-61 39-100z m-834 139h611v83c0 22-11 44-22 61s-39 22-61 22h-444c-23 0-45-11-62-22s-22-39-22-61v-83z m778-256c-17-6-28-11-39-17-61-39-139-39-200 0-39 28-94 28-133 0-61-39-139-39-200 0-39 28-95 28-134 0-61-39-138-39-200 0-11 6-27 17-38 17v-244h944v244z m0 117c0 22-11 44-22 61s-39 22-61 22h-778c-22 0-45-11-61-22s-22-39-22-61v-61c27-6 50-12 72-28 39-28 94-28 133 0 61 39 139 39 200 0 39-28 95-28 133 0 28 22 62 28 100 28s67-12 100-28c39-28 95-28 134 0 22 16 44 22 72 28v61z m-639 527c17 0 28 12 28 28s-11 28-28 28h0c-17 0-28-11-28-28s11-28 28-28z" horiz-adv-x="1056" />

<glyph glyph-name="birthday-2" unicode="&#xe9ed;" d="M1182-89h-61v303c0 48-42 91-91 91h-30v212c0 48-42 91-91 91h-30v151c0 49-43 91-91 91h-364c-48 0-91-42-91-91v-151h-30c-48 0-91-43-91-91v-212h-30c-49 0-91-43-91-91v-303h-61c-18 0-30-13-30-31s12-30 30-30h1152c18 0 30 12 30 30s-12 31-30 31z m-758 878h364c18 0 30-12 30-30v-18l-36-36c-6-6-12-13-24-13 0 0 0 0 0 0-6 0-19 7-25 13l-30 30c-18 18-42 30-67 30 0 0 0 0 0 0-24 0-48-12-66-30l-18-30c-13-13-31-13-43 0l-30 24c-18 18-43 30-67 30-6 0-12 0-18 0v0c0 18 12 30 30 30z m-30-103c6 6 12 13 18 13 6 0 18 0 24-13l25-24c18-18 42-30 66-30s49 12 67 30l30 30c6 7 12 13 25 13 6 0 18-6 24-13l30-30c18-18 43-30 67-30 18 0 42 6 54 18v-42h-424v78z m-91-139h606c18 0 30-12 30-30v-18c-18 12-36 24-60 24-24 0-49-12-67-31l-30-30c-6-6-12-12-24-12h0c-6 0-19 6-25 12l-30 30c-18 19-42 31-67 31 0 0 0 0 0 0-24 0-48-12-66-31l-18-30c-13-12-31-12-43 0l-30 30c-37 37-97 37-133 0l-25-30c-6-6-18-6-24-6-6 0-18 6-24 12l0 0v49c0 18 12 30 30 30z m-30-151c6 0 12-7 24-7 24 0 49 13 67 31l24 30c12 12 30 12 42 0l31-30c36-37 97-37 133 0l30 30c6 6 12 12 25 12 6 0 18-6 24-12l30-30c18-18 43-31 67-31 0 0 0 0 0 0 24 0 48 13 66 31l31 30c6 6 12 12 24 12 6 0 18-6 24-6l37-36v-115h-667v91z m-91-152h848c19 0 31-12 31-30v-49c-25 0-43-6-61-24l-24-24c-12-12-30-12-43 0l-24 18c-36 36-91 36-127 0l-18-18c-12-12-31-12-43 0l-18 18c-36 36-91 36-127 0l-18-18c-12-12-31-12-43 0l-18 18c-36 36-91 36-127 0l-18-18c-13-12-31-12-43 0l-18 18c-36 36-91 36-127 0l-12-12v91c0 18 12 30 30 30z m-30-333v127l54 48c12 13 30 13 43 0l18-18c36-36 91-36 127 0l18 18c12 13 30 13 43 0l18-18c36-36 91-36 127 0l18 18c12 13 31 13 43 0l18-18c36-36 91-36 127 0l18 18c12 13 31 13 43 0l18-18c36-36 91-36 127 0l24 24c6 7 13 7 19 7v-188h-903z" horiz-adv-x="1212" />

<glyph glyph-name="ticket_2" unicode="&#xe9ee;" d="M1237-150h-1053c-100 0-184 84-184 184v632c0 100 84 184 184 184h1053c100 0 184-84 184-184v-53c0-42-21-84-42-121-11-21-21-42-26-63-6-21-11-47-11-79 0-32 5-58 11-79 5-21 15-42 26-63 21-37 42-79 42-121v-53c0-100-84-184-184-184z m-1053 947c-73 0-131-57-131-131v-632c0-74 58-131 131-131h1053c74 0 131 57 131 131v53c0 31-15 63-36 100-11 21-27 47-32 74-5 26-10 57-10 94 0 37 5 69 10 95 5 26 21 47 32 74 21 26 36 58 36 89v53c0 74-57 131-131 131h-1053z m579-631h-210c-42 0-79 37-79 79v210c0 42 37 79 79 79h210c42 0 79-37 79-79v-210c0-42-37-79-79-79z m-210 316c-16 0-27-11-27-27v-210c0-16 11-27 27-27h210c16 0 27 11 27 27v210c0 16-11 27-27 27h-210z m-132-27v53c0 42 37 79 79 79h53c15 0 26 10 26 26s-11 27-26 27h-53c-74 0-132-58-132-132v-53c0-15 11-26 27-26s26 11 26 26z m526 0v53c0 74-57 132-131 132h-53c-16 0-26-11-26-27s10-26 26-26h53c42 0 79-37 79-79v-53c0-15 10-26 26-26s26 11 26 26z m-368-368c0 16-11 26-26 26h-53c-42 0-79 37-79 79v53c0 16-10 26-26 26s-27-10-27-26v-53c0-74 58-131 132-131h53c15 0 26 10 26 26z m368 105v53c0 16-10 26-26 26s-26-10-26-26v-53c0-42-37-79-79-79h-53c-16 0-26-10-26-26s10-26 26-26h53c74 0 131 57 131 131z" horiz-adv-x="1421" />

<glyph glyph-name="ticket" unicode="&#xe9ef;" d="M1132-150h-842c-43 0-79 37-79 79 0 74-58 132-132 132-42 0-79 36-79 79v421c0 42 37 79 79 79 74 0 132 57 132 131 0 42 36 79 79 79h842c42 0 79-37 79-79 0-74 57-131 131-131h16c37 0 63-27 63-64v-458c0-31-26-63-63-63h-16c-74 0-131-58-131-131 0-37-37-74-79-74z m-842 947c-16 0-27-10-27-26 0-100-84-184-184-184-16 0-26-11-26-26v-421c0-16 10-27 26-27 100 0 184-84 184-184 0-16 11-26 27-26h842c15 0 26 10 26 26 0 100 84 184 184 184h16c5 0 10 5 10 11v452c0 6-5 11-10 11h-16c-100 0-184 84-184 184 0 16-11 26-26 26h-842z m684-315c0 15-11 26-27 26h-526c-16 0-26-11-26-26s10-27 26-27h526c16 0 27 11 27 27z m-263-158c0 16-11 26-27 26h-263c-16 0-26-10-26-26s10-27 26-27h263c16 0 27 11 27 27z" horiz-adv-x="1421" />

</font>
</defs>
</svg>
