<svg width="80" height="80" viewBox="0 0 80 80" fill="none" xmlns="http://www.w3.org/2000/svg">
<path d="M39.9931 39.9717V46.4038L64.2457 32.307C64.4014 32.222 64.5571 32.1653 64.7127 32.0945C66.4674 31.3578 67.8397 32.2787 67.8397 34.3755C67.8397 36.6565 66.2267 39.5608 64.2457 40.6943L39.9931 54.6494V61.2518L64.2457 47.1547C64.4014 47.0697 64.5571 47.0131 64.7127 46.9422C66.4674 46.1913 67.8397 47.1264 67.8397 49.2232C67.8397 51.5042 66.2267 54.4083 64.2457 55.5418L39.9931 69.4971V75.9436L71.1227 57.9506V21.9646L39.9931 39.9292V39.9575V39.9717Z" fill="white"/>
<path d="M31.7009 45.8371C31.7009 43.5561 30.0879 40.6518 28.121 39.5183L8.8774 28.3684V36.7131L28.5739 48.1181C30.3284 48.8548 31.7009 47.9339 31.7009 45.8371Z" fill="black"/>
<path d="M64.2597 40.6943C66.2407 39.5609 67.8536 36.6565 67.8536 34.3755C67.8536 32.2787 66.4953 31.3436 64.7262 32.0945C64.571 32.1654 64.4293 32.2078 64.2597 32.307L40.0069 46.4039V39.9576L71.1363 21.9929L40.0069 4L8.87746 21.9929L29.6776 34.0071C30.9652 34.7014 32.1538 35.8773 33.1867 37.3366C33.9225 38.385 34.5734 39.5892 35.1111 40.8785C35.1253 40.921 35.1394 40.9635 35.1536 41.006C35.3092 41.3885 35.4507 41.7711 35.578 42.1536C35.5922 42.2102 35.6205 42.2669 35.6346 42.3236C35.9035 43.1595 36.1157 44.0237 36.2713 44.8879C36.2855 45.0013 36.2997 45.1146 36.328 45.2279C36.3846 45.5538 36.427 45.8655 36.4553 46.1914C36.4553 46.3047 36.4836 46.4322 36.4836 46.5597C36.5119 46.9848 36.5402 47.3956 36.5402 47.8206C36.5402 51.6459 35.0828 55.2869 32.9462 55.8397C32.366 55.9956 31.7293 55.9956 31.0643 55.8397C30.6115 55.7262 30.1587 55.5563 29.6776 55.3014L8.87746 43.287V58.007L40.0069 76V69.554L64.2597 55.5987C66.2407 54.4652 67.8536 51.5609 67.8536 49.2799C67.8536 47.1831 66.4953 46.248 64.7262 46.9989C64.571 47.0698 64.4293 47.1264 64.2597 47.2114L40.0069 61.3082V54.7063L64.2597 40.751V40.6943Z" fill="black"/>
<path d="M36.4841 46.5313C36.4841 46.4038 36.4558 46.2905 36.4558 46.163C36.4275 45.8371 36.3851 45.5254 36.3285 45.1996C36.3143 45.0862 36.3002 44.9729 36.2719 44.8595C36.1162 43.9953 35.904 43.1311 35.6351 42.2952C35.621 42.2385 35.5927 42.1819 35.5785 42.1252C35.4512 41.7426 35.3097 41.3601 35.154 40.9776C35.1399 40.9351 35.1257 40.8926 35.0974 40.8501C34.5739 39.5608 33.923 38.3566 33.1731 37.3081C32.1401 35.8489 30.9516 34.673 29.6639 33.9788L8.86381 21.9646V28.3684L24.1738 37.2373L28.1074 39.5183C30.0884 40.6517 31.7015 43.5561 31.7015 45.8371C31.7015 47.9339 30.3431 48.869 28.5744 48.1181L8.87795 36.7131V43.2302L29.6781 55.2444C30.145 55.4994 30.612 55.6837 31.0648 55.7828C31.7298 55.9387 32.3665 55.9387 32.9608 55.7828C35.0974 55.2305 36.5549 51.5892 36.5549 47.7639C36.5549 47.3389 36.5266 46.928 36.4983 46.503" fill="white"/>
</svg>
