<svg width="358" height="40" viewBox="0 0 358 40" fill="none" xmlns="http://www.w3.org/2000/svg">
<path d="M0 8C0 3.58172 3.58172 0 8 0H350C354.418 0 358 3.58172 358 8V32C358 36.4183 354.418 40 350 40H8C3.58173 40 0 36.4183 0 32V8Z" fill="#F2F2F2"/>
<path d="M8 0.5H350C354.142 0.500002 357.5 3.85787 357.5 8V32C357.5 36.1421 354.142 39.5 350 39.5H8C3.85787 39.5 0.5 36.1421 0.5 32V8C0.5 3.85786 3.85786 0.5 8 0.5Z" stroke="black" stroke-opacity="0.1"/>
<path d="M29 29L24.65 24.65M27 19C27 23.4183 23.4183 27 19 27C14.5817 27 11 23.4183 11 19C11 14.5817 14.5817 11 19 11C23.4183 11 27 14.5817 27 19Z" stroke="#828282" stroke-width="1.5" stroke-linecap="round" stroke-linejoin="round"/>
<path d="M48.12 15.2V25H47.14V16.124H42.1V25H41.12V15.2H48.12ZM53.4842 25.168C51.4402 25.168 49.8022 23.572 49.8022 21.5C49.8022 19.428 51.4402 17.832 53.4842 17.832C55.5282 17.832 57.1662 19.428 57.1662 21.5C57.1662 23.572 55.5282 25.168 53.4842 25.168ZM53.4842 24.272C55.0382 24.272 56.2422 23.054 56.2422 21.5C56.2422 19.946 55.0382 18.728 53.4842 18.728C51.9302 18.728 50.7262 19.946 50.7262 21.5C50.7262 23.054 51.9302 24.272 53.4842 24.272ZM63.8084 18H64.5924V25H63.6684V19.61L59.4964 25H58.7124V18H59.6364V23.39L63.8084 18ZM69.8084 25.168C67.6944 25.168 66.1264 23.572 66.1264 21.5C66.1264 19.428 67.6944 17.832 69.8084 17.832C71.1944 17.832 72.3704 18.56 72.8744 19.666L72.1184 20.1C71.7404 19.274 70.8584 18.728 69.8084 18.728C68.2544 18.728 67.0504 19.946 67.0504 21.5C67.0504 23.054 68.2544 24.272 69.8084 24.272C70.8724 24.272 71.7264 23.712 72.1744 22.9L72.9444 23.348C72.3704 24.454 71.1804 25.168 69.8084 25.168ZM79.927 25H78.695L75.195 21.626V25H74.271V18H75.195V21.094L78.527 18H79.787L76.175 21.36L79.927 25Z" fill="#828282"/>
</svg>
