<svg width="390" height="50" viewBox="0 0 390 50" fill="none" xmlns="http://www.w3.org/2000/svg">
<path d="M19.3226 19.3H20.9226V30.5H19.0826V21.268L16.8266 21.908L16.3786 20.34L19.3226 19.3ZM24.9558 19.3H26.5558V30.5H24.7158V21.268L22.4598 21.908L22.0118 20.34L24.9558 19.3ZM29.4849 24.692C28.8129 24.692 28.2849 24.148 28.2849 23.492C28.2849 22.82 28.8129 22.292 29.4849 22.292C30.1409 22.292 30.6849 22.82 30.6849 23.492C30.6849 24.148 30.1409 24.692 29.4849 24.692ZM29.4849 30.692C28.8129 30.692 28.2849 30.148 28.2849 29.492C28.2849 28.82 28.8129 28.292 29.4849 28.292C30.1409 28.292 30.6849 28.82 30.6849 29.492C30.6849 30.148 30.1409 30.692 29.4849 30.692ZM36.539 23.876C38.075 24.244 39.275 25.364 39.275 27.108C39.275 29.46 37.419 30.708 35.355 30.708C33.707 30.708 32.219 29.956 31.595 28.388L33.163 27.476C33.483 28.42 34.235 28.916 35.355 28.916C36.619 28.916 37.435 28.228 37.435 27.108C37.435 25.988 36.619 25.316 35.355 25.316H34.939L34.203 24.212L36.619 21.028H31.931V19.3H38.811V20.868L36.539 23.876ZM47.6013 22.916C47.6013 23.78 47.3612 24.548 46.9293 25.172L43.3932 30.5H41.2812L43.8413 26.74H43.6493C41.3293 26.74 39.6813 25.172 39.6813 22.916C39.6813 20.66 41.3293 19.092 43.6493 19.092C45.9693 19.092 47.6013 20.66 47.6013 22.916ZM41.5213 22.916C41.5213 24.18 42.4333 24.996 43.6493 24.996C44.8653 24.996 45.7613 24.196 45.7613 22.916C45.7613 21.636 44.8653 20.836 43.6493 20.836C42.4333 20.836 41.5213 21.636 41.5213 22.916Z" fill="black"/>
<rect opacity="0.2" x="318" y="19.25" width="3.5" height="11.5" rx="1" fill="black"/>
<path d="M313 22.75C313 22.1977 313.448 21.75 314 21.75H315.5C316.052 21.75 316.5 22.1977 316.5 22.75V29.75C316.5 30.3023 316.052 30.75 315.5 30.75H314C313.448 30.75 313 30.3023 313 29.75V22.75Z" fill="black"/>
<path d="M308 25.25C308 24.6977 308.448 24.25 309 24.25H310.5C311.052 24.25 311.5 24.6977 311.5 25.25V29.75C311.5 30.3023 311.052 30.75 310.5 30.75H309C308.448 30.75 308 30.3023 308 29.75V25.25Z" fill="black"/>
<path d="M303 27.25C303 26.6977 303.448 26.25 304 26.25H305.5C306.052 26.25 306.5 26.6977 306.5 27.25V29.75C306.5 30.3023 306.052 30.75 305.5 30.75H304C303.448 30.75 303 30.3023 303 29.75V27.25Z" fill="black"/>
<path d="M336.825 28.539C336.89 28.4755 336.926 28.388 336.924 28.2973C336.922 28.2066 336.883 28.1206 336.816 28.0598C335.479 26.9283 333.522 26.9283 332.186 28.0598C332.118 28.1206 332.079 28.2065 332.077 28.2972C332.075 28.3879 332.111 28.4754 332.176 28.539L334.268 30.6529C334.33 30.715 334.413 30.75 334.501 30.75C334.588 30.75 334.671 30.715 334.733 30.6529L336.825 28.539Z" fill="black"/>
<path d="M334.5 25.6191C335.776 25.619 337.006 26.0936 337.951 26.9506C338.079 27.0722 338.281 27.0696 338.405 26.9447L339.615 25.7212C339.679 25.657 339.714 25.5699 339.713 25.4795C339.712 25.389 339.675 25.3027 339.61 25.2398C336.731 22.5589 332.272 22.5589 329.393 25.2398C329.328 25.3027 329.291 25.389 329.29 25.4795C329.289 25.57 329.325 25.6571 329.389 25.7212L330.598 26.9447C330.722 27.0696 330.924 27.0722 331.052 26.9506C331.997 26.0942 333.226 25.6196 334.5 25.6191Z" fill="black"/>
<path opacity="0.2" d="M334.5 21.6383C336.822 21.6384 339.055 22.5313 340.737 24.1325C340.864 24.2561 341.066 24.2545 341.191 24.129L342.402 22.9055C342.465 22.8418 342.501 22.7555 342.5 22.6658C342.499 22.576 342.463 22.4902 342.399 22.4272C337.983 18.1909 331.017 18.1909 326.601 22.4272C326.537 22.4901 326.501 22.576 326.5 22.6657C326.499 22.7555 326.535 22.8417 326.598 22.9055L327.809 24.129C327.934 24.2547 328.137 24.2563 328.263 24.1325C329.946 22.5312 332.179 21.6383 334.5 21.6383Z" fill="black"/>
<g clip-path="url(#clip0_6_2203)">
<path d="M349.5 22C349.5 21.3096 350.06 20.75 350.75 20.75H351.5V29.25H350.75C350.06 29.25 349.5 28.6904 349.5 28V22Z" fill="black"/>
<path d="M351.5 20.75H353.5V29.25H351.5V20.75Z" fill="black"/>
<path d="M353.5 20.75H355.5V29.25H353.5V20.75Z" fill="black"/>
<path d="M355.5 20.75H357.5V29.25H355.5V20.75Z" fill="black"/>
<path d="M357.5 20.75H359.5V29.25H357.5V20.75Z" fill="black"/>
<path d="M359.5 20.75H361.5V29.25H359.5V20.75Z" fill="black"/>
<path d="M361.5 20.75H363.5V29.25H361.5V20.75Z" fill="black"/>
<path d="M365.5 22C365.5 21.3096 364.94 20.75 364.25 20.75H363.5V29.25H364.25C364.94 29.25 365.5 28.6904 365.5 28V22Z" fill="black"/>
</g>
<g opacity="0.5">
<path fill-rule="evenodd" clip-rule="evenodd" d="M347.5 21.75C347.5 20.0931 348.843 18.75 350.5 18.75H368.5C370.157 18.75 371.5 20.0931 371.5 21.75V28.25C371.5 29.9069 370.157 31.25 368.5 31.25H350.5C348.843 31.25 347.5 29.9069 347.5 28.25V21.75ZM350.5 19.75C349.395 19.75 348.5 20.6454 348.5 21.75V28.25C348.5 29.3546 349.395 30.25 350.5 30.25H368.5C369.605 30.25 370.5 29.3546 370.5 28.25V21.75C370.5 20.6454 369.605 19.75 368.5 19.75H350.5Z" fill="black"/>
<path d="M372.5 27.292C373.383 26.9062 374 26.0251 374 25C374 23.9748 373.383 23.0938 372.5 22.708V27.292Z" fill="black"/>
</g>
<defs>
<clipPath id="clip0_6_2203">
<rect width="16" height="8.5" fill="white" transform="translate(349.5 20.75)"/>
</clipPath>
</defs>
</svg>
