<svg width="57" height="57" viewBox="0 0 57 57" fill="none" xmlns="http://www.w3.org/2000/svg">
<rect width="3" height="3" rx="0.5" transform="matrix(-1 0 0 1 11 8)" fill="#DFDFDF"/>
<rect width="3" height="3" rx="0.5" transform="matrix(-1 0 0 1 30 8)" fill="#DFDFDF"/>
<rect width="3" height="3" rx="0.5" transform="matrix(-1 0 0 1 49 8)" fill="#DFDFDF"/>
<rect width="3" height="3" rx="0.5" transform="matrix(-1 0 0 1 11 27)" fill="#DFDFDF"/>
<rect width="3" height="3" rx="0.5" transform="matrix(-1 0 0 1 30 27)" fill="#DFDFDF"/>
<rect width="3" height="3" rx="0.5" transform="matrix(-1 0 0 1 49 27)" fill="#DFDFDF"/>
<rect width="3" height="3" rx="0.5" transform="matrix(-1 0 0 1 11 46)" fill="#DFDFDF"/>
<rect width="3" height="3" rx="0.5" transform="matrix(-1 0 0 1 30 46)" fill="#DFDFDF"/>
<rect width="3" height="3" rx="0.5" transform="matrix(-1 0 0 1 49 46)" fill="#DFDFDF"/>
</svg>
